<?xml version="1.0" encoding="UTF-8" standalone="no"?>
<!-- Created with Inkscape (http://www.inkscape.org/) -->

<svg
   xmlns:dc="http://purl.org/dc/elements/1.1/"
   xmlns:cc="http://creativecommons.org/ns#"
   xmlns:rdf="http://www.w3.org/1999/02/22-rdf-syntax-ns#"
   xmlns:svg="http://www.w3.org/2000/svg"
   xmlns="http://www.w3.org/2000/svg"
   xmlns:sodipodi="http://sodipodi.sourceforge.net/DTD/sodipodi-0.dtd"
   xmlns:inkscape="http://www.inkscape.org/namespaces/inkscape"
   width="211.84712mm"
   height="60.883682mm"
   viewBox="0 0 211.84713 60.883682"
   version="1.1"
   id="svg8"
   inkscape:version="0.92.2 (5c3e80d, 2017-08-06)"
   sodipodi:docname="variablenBeschreibung.svg">
  <defs
     id="defs2">
    <marker
       inkscape:stockid="Arrow2Mend"
       orient="auto"
       refY="0"
       refX="0"
       id="marker7662"
       style="overflow:visible"
       inkscape:isstock="true">
      <path
         id="path7660"
         style="fill:#608b1b;fill-opacity:1;fill-rule:evenodd;stroke:#608b1b;stroke-width:0.625;stroke-linejoin:round;stroke-opacity:1"
         d="M 8.7185878,4.0337352 -2.2072895,0.01601326 8.7185884,-4.0017078 c -1.7454984,2.3720609 -1.7354408,5.6174519 -6e-7,8.035443 z"
         transform="scale(-0.6)"
         inkscape:connector-curvature="0" />
    </marker>
    <marker
       inkscape:stockid="Arrow2Send"
       orient="auto"
       refY="0"
       refX="0"
       id="Arrow2Send"
       style="overflow:visible"
       inkscape:isstock="true">
      <path
         id="path4643"
         style="fill:#000000;fill-opacity:1;fill-rule:evenodd;stroke:#000000;stroke-width:0.625;stroke-linejoin:round;stroke-opacity:1"
         d="M 8.7185878,4.0337352 -2.2072895,0.01601326 8.7185884,-4.0017078 c -1.7454984,2.3720609 -1.7354408,5.6174519 -6e-7,8.035443 z"
         transform="matrix(-0.3,0,0,-0.3,0.69,0)"
         inkscape:connector-curvature="0" />
    </marker>
    <marker
       inkscape:stockid="Arrow1Send"
       orient="auto"
       refY="0"
       refX="0"
       id="Arrow1Send"
       style="overflow:visible"
       inkscape:isstock="true">
      <path
         id="path4625"
         d="M 0,0 5,-5 -12.5,0 5,5 Z"
         style="fill:#000000;fill-opacity:1;fill-rule:evenodd;stroke:#000000;stroke-width:1.00000003pt;stroke-opacity:1"
         transform="matrix(-0.2,0,0,-0.2,-1.2,0)"
         inkscape:connector-curvature="0" />
    </marker>
    <marker
       inkscape:stockid="Arrow2Lend"
       orient="auto"
       refY="0"
       refX="0"
       id="Arrow2Lend"
       style="overflow:visible"
       inkscape:isstock="true">
      <path
         id="path4631"
         style="fill:#000000;fill-opacity:1;fill-rule:evenodd;stroke:#000000;stroke-width:0.625;stroke-linejoin:round;stroke-opacity:1"
         d="M 8.7185878,4.0337352 -2.2072895,0.01601326 8.7185884,-4.0017078 c -1.7454984,2.3720609 -1.7354408,5.6174519 -6e-7,8.035443 z"
         transform="matrix(-1.1,0,0,-1.1,-1.1,0)"
         inkscape:connector-curvature="0" />
    </marker>
    <marker
       inkscape:stockid="Arrow2Mend"
       orient="auto"
       refY="0"
       refX="0"
       id="Arrow2Mend"
       style="overflow:visible"
       inkscape:isstock="true">
      <path
         id="path4637"
         style="fill:#195faf;fill-opacity:1;fill-rule:evenodd;stroke:#195faf;stroke-width:0.625;stroke-linejoin:round;stroke-opacity:1"
         d="M 8.7185878,4.0337352 -2.2072895,0.01601326 8.7185884,-4.0017078 c -1.7454984,2.3720609 -1.7354408,5.6174519 -6e-7,8.035443 z"
         transform="scale(-0.6)"
         inkscape:connector-curvature="0" />
    </marker>
    <marker
       inkscape:stockid="Arrow1Mstart"
       orient="auto"
       refY="0"
       refX="0"
       id="Arrow1Mstart"
       style="overflow:visible"
       inkscape:isstock="true">
      <path
         id="path4616"
         d="M 0,0 5,-5 -12.5,0 5,5 Z"
         style="fill:#000000;fill-opacity:1;fill-rule:evenodd;stroke:#000000;stroke-width:1.00000003pt;stroke-opacity:1"
         transform="matrix(0.4,0,0,0.4,4,0)"
         inkscape:connector-curvature="0" />
    </marker>
    <marker
       inkscape:stockid="Arrow1Lstart"
       orient="auto"
       refY="0"
       refX="0"
       id="Arrow1Lstart"
       style="overflow:visible"
       inkscape:isstock="true">
      <path
         id="path4610"
         d="M 0,0 5,-5 -12.5,0 5,5 Z"
         style="fill:#000000;fill-opacity:1;fill-rule:evenodd;stroke:#000000;stroke-width:1.00000003pt;stroke-opacity:1"
         transform="matrix(0.8,0,0,0.8,10,0)"
         inkscape:connector-curvature="0" />
    </marker>
    <marker
       inkscape:stockid="Arrow2Lstart"
       orient="auto"
       refY="0"
       refX="0"
       id="Arrow2Lstart"
       style="overflow:visible"
       inkscape:isstock="true">
      <path
         id="path4628"
         style="fill:#000000;fill-opacity:1;fill-rule:evenodd;stroke:#000000;stroke-width:0.625;stroke-linejoin:round;stroke-opacity:1"
         d="M 8.7185878,4.0337352 -2.2072895,0.01601326 8.7185884,-4.0017078 c -1.7454984,2.3720609 -1.7354408,5.6174519 -6e-7,8.035443 z"
         transform="matrix(1.1,0,0,1.1,1.1,0)"
         inkscape:connector-curvature="0" />
    </marker>
    <marker
       inkscape:stockid="Arrow2Mstart"
       orient="auto"
       refY="0"
       refX="0"
       id="Arrow2Mstart"
       style="overflow:visible"
       inkscape:isstock="true">
      <path
         id="path4634"
         style="fill:#000000;fill-opacity:1;fill-rule:evenodd;stroke:#000000;stroke-width:0.625;stroke-linejoin:round;stroke-opacity:1"
         d="M 8.7185878,4.0337352 -2.2072895,0.01601326 8.7185884,-4.0017078 c -1.7454984,2.3720609 -1.7354408,5.6174519 -6e-7,8.035443 z"
         transform="scale(0.6)"
         inkscape:connector-curvature="0" />
    </marker>
    <marker
       inkscape:stockid="Arrow2Mend"
       orient="auto"
       refY="0"
       refX="0"
       id="Arrow2Mend-9"
       style="overflow:visible"
       inkscape:isstock="true">
      <path
         inkscape:connector-curvature="0"
         id="path4637-4"
         style="fill:#992d2d;fill-opacity:1;fill-rule:evenodd;stroke:#992d2d;stroke-width:0.625;stroke-linejoin:round;stroke-opacity:1"
         d="M 8.7185878,4.0337352 -2.2072895,0.01601326 8.7185884,-4.0017078 c -1.7454984,2.3720609 -1.7354408,5.6174519 -6e-7,8.035443 z"
         transform="scale(-0.6)" />
    </marker>
    <marker
       inkscape:stockid="Arrow2Mend"
       orient="auto"
       refY="0"
       refX="0"
       id="Arrow2Mend-8"
       style="overflow:visible"
       inkscape:isstock="true">
      <path
         inkscape:connector-curvature="0"
         id="path4637-3"
         style="fill:#00929a;fill-opacity:1;fill-rule:evenodd;stroke:#00929a;stroke-width:0.625;stroke-linejoin:round;stroke-opacity:1"
         d="M 8.7185878,4.0337352 -2.2072895,0.01601326 8.7185884,-4.0017078 c -1.7454984,2.3720609 -1.7354408,5.6174519 -6e-7,8.035443 z"
         transform="scale(-0.6)" />
    </marker>
    <marker
       inkscape:stockid="Arrow2Mend"
       orient="auto"
       refY="0"
       refX="0"
       id="Arrow2Mend-8-0"
       style="overflow:visible"
       inkscape:isstock="true">
      <path
         inkscape:connector-curvature="0"
         id="path4637-3-1"
         style="fill:#d67400;fill-opacity:1;fill-rule:evenodd;stroke:#d67400;stroke-width:0.625;stroke-linejoin:round;stroke-opacity:1"
         d="M 8.7185878,4.0337352 -2.2072895,0.01601326 8.7185884,-4.0017078 c -1.7454984,2.3720609 -1.7354408,5.6174519 -6e-7,8.035443 z"
         transform="scale(-0.6)" />
    </marker>
  </defs>
  <sodipodi:namedview
     id="base"
     pagecolor="#ffffff"
     bordercolor="#666666"
     borderopacity="1.0"
     inkscape:pageopacity="0.0"
     inkscape:pageshadow="2"
     inkscape:zoom="0.7"
     inkscape:cx="-580.42361"
     inkscape:cy="518.10153"
     inkscape:document-units="mm"
     inkscape:current-layer="layer2"
     showgrid="false"
     inkscape:snap-grids="false"
     inkscape:snap-to-guides="true"
     showguides="true"
     inkscape:guide-bbox="true"
     inkscape:window-width="2560"
     inkscape:window-height="1361"
     inkscape:window-x="-9"
     inkscape:window-y="-9"
     inkscape:window-maximized="1"
     objecttolerance="30"
     fit-margin-top="1"
     fit-margin-bottom="1"
     fit-margin-left="1"
     fit-margin-right="2">
    <sodipodi:guide
       position="-124.82171,22.207068"
       orientation="0,1"
       id="guide4530"
       inkscape:locked="false" />
    <sodipodi:guide
       position="-10.16309,45.16476"
       orientation="0,1"
       id="guide4550"
       inkscape:locked="false" />
    <sodipodi:guide
       position="44.454469,64.63053"
       orientation="1,0"
       id="guide4552"
       inkscape:locked="false" />
    <sodipodi:guide
       position="-1.8777348,55.214859"
       orientation="0,1"
       id="guide4572"
       inkscape:locked="false" />
    <sodipodi:guide
       position="34.674336,41.90472"
       orientation="1,0"
       inkscape:locked="false"
       id="guide4574" />
    <sodipodi:guide
       position="161.81979,25.18746"
       orientation="0,1"
       id="guide5483"
       inkscape:locked="false" />
    <sodipodi:guide
       position="110.24183,41.1832"
       orientation="0,1"
       id="guide5713"
       inkscape:locked="false" />
    <sodipodi:guide
       position="90.731154,0.69186846"
       orientation="0,1"
       id="guide7330"
       inkscape:locked="false" />
    <sodipodi:guide
       position="168.74371,29.604106"
       orientation="0,1"
       id="guide7360"
       inkscape:locked="false" />
  </sodipodi:namedview>
  <metadata
     id="metadata5">
    <rdf:RDF>
      <cc:Work
         rdf:about="">
        <dc:format>image/svg+xml</dc:format>
        <dc:type
           rdf:resource="http://purl.org/dc/dcmitype/StillImage" />
        <dc:title></dc:title>
      </cc:Work>
    </rdf:RDF>
  </metadata>
  <g
     inkscape:label="Ebene 1"
     inkscape:groupmode="layer"
     id="layer1"
     transform="translate(-10.16309,-79.252798)">
    <text
       xml:space="preserve"
       style="font-style:normal;font-variant:normal;font-weight:normal;font-stretch:normal;font-size:11.28888893px;line-height:1.25;font-family:'Franklin Gothic Demi';-inkscape-font-specification:'Franklin Gothic Demi';letter-spacing:0.55827081px;word-spacing:0px;fill:#4949ff;fill-opacity:1;stroke:none;stroke-width:0.26458332"
       x="38.754082"
       y="120.86938"
       id="text3701"><tspan
         sodipodi:role="line"
         id="tspan3699"
         x="38.754082"
         y="131.16051"
         style="font-style:normal;font-variant:normal;font-weight:normal;font-stretch:normal;font-size:11.28888893px;font-family:'Franklin Gothic Demi';-inkscape-font-specification:'Franklin Gothic Demi';fill:#4949ff;fill-opacity:1;stroke-width:0.26458332" /></text>
    <text
       xml:space="preserve"
       style="font-style:normal;font-variant:normal;font-weight:normal;font-stretch:normal;font-size:10.58333302px;line-height:1.25;font-family:'Franklin Gothic Heavy';-inkscape-font-specification:'Franklin Gothic Heavy, ';letter-spacing:0.55827081px;word-spacing:0px;fill:#4891e4;fill-opacity:1;stroke:none;stroke-width:0.26458332"
       x="36.081387"
       y="74.097214"
       id="text4510"><tspan
         sodipodi:role="line"
         id="tspan4508"
         x="36.081387"
         y="83.74514"
         style="fill:#4891e4;fill-opacity:1;stroke-width:0.26458332" /></text>
    <g
       aria-label="meineVariable"
       style="font-style:normal;font-variant:normal;font-weight:normal;font-stretch:normal;font-size:10.58333302px;line-height:1.25;font-family:'Franklin Gothic Heavy';-inkscape-font-specification:'Franklin Gothic Heavy, ';letter-spacing:0.55827081px;word-spacing:0px;fill:#992d2d;fill-opacity:1;stroke:none;stroke-width:0.26458332"
       id="text4528">
      <path
         d="m 68.757543,117.79578 h -1.539958 v -2.88872 q 0,-0.60978 -0.03617,-0.79065 -0.03617,-0.18603 -0.191203,-0.30489 -0.149862,-0.12402 -0.418579,-0.12402 -0.253215,0 -0.516765,0.18087 -0.263549,0.18087 -0.263549,1.03869 v 2.88872 h -1.53479 v -2.88872 q 0,-0.62528 -0.05684,-0.80615 -0.05684,-0.18603 -0.217041,-0.29972 -0.155029,-0.11369 -0.397908,-0.11369 -0.397909,0 -0.594279,0.25321 -0.191203,0.24805 -0.191203,0.96635 v 2.88872 h -1.493449 v -5.21932 h 1.44694 v 0.79581 q 0.366903,-0.90433 1.467611,-0.90433 0.997355,0 1.441772,0.90433 0.434083,-0.90433 1.51412,-0.90433 0.516764,0 0.888835,0.21187 0.37207,0.21187 0.532267,0.55294 0.160197,0.34106 0.160197,1.17305 z"
         style="font-style:normal;font-variant:normal;font-weight:normal;font-stretch:normal;font-family:'Franklin Gothic Demi';-inkscape-font-specification:'Franklin Gothic Demi';fill:#992d2d;fill-opacity:1;stroke-width:0.26458332"
         id="path8000"
         inkscape:connector-curvature="0" />
      <path
         d="m 75.274106,115.4445 h -3.358968 q -0.0052,0.13953 -0.0052,0.24288 0,0.5581 0.294556,0.84232 0.299723,0.28422 0.713134,0.28422 0.769979,0 0.925008,-0.82165 l 1.395264,0.10335 q -0.583944,1.80868 -2.371948,1.80868 -0.780314,0 -1.328084,-0.31006 -0.542603,-0.31523 -0.89917,-0.91467 -0.3514,-0.59945 -0.3514,-1.43661 0,-1.2454 0.707967,-2.01021 0.713135,-0.76481 1.829346,-0.76481 1.00769,0 1.725993,0.71313 0.72347,0.70797 0.72347,2.26343 z m -3.364136,-0.894 h 1.855184 q -0.07235,-1.07487 -0.883667,-1.07487 -0.868164,0 -0.971517,1.07487 z"
         style="font-style:normal;font-variant:normal;font-weight:normal;font-stretch:normal;font-family:'Franklin Gothic Demi';-inkscape-font-specification:'Franklin Gothic Demi';fill:#992d2d;fill-opacity:1;stroke-width:0.26458332"
         id="path8002"
         inkscape:connector-curvature="0" />
      <path
         d="m 78.349019,112.57646 v 5.21932 h -1.539958 v -5.21932 z m 0,-1.97921 v 1.53996 h -1.539958 v -1.53996 z"
         style="font-style:normal;font-variant:normal;font-weight:normal;font-stretch:normal;font-family:'Franklin Gothic Demi';-inkscape-font-specification:'Franklin Gothic Demi';fill:#992d2d;fill-opacity:1;stroke-width:0.26458332"
         id="path8004"
         inkscape:connector-curvature="0" />
      <path
         d="m 84.71572,117.79578 h -1.539957 v -2.93006 q 0,-0.53226 -0.04134,-0.72863 -0.04134,-0.19638 -0.201539,-0.33073 -0.160196,-0.13953 -0.403076,-0.13953 -0.81132,0 -0.81132,1.19889 v 2.93006 H 80.17853 v -5.21932 h 1.431437 v 0.88366 q 0.356567,-0.63045 0.702799,-0.81132 0.346232,-0.18086 0.749309,-0.18086 0.74414,0 1.198893,0.40307 0.454752,0.39791 0.454752,1.57097 z"
         style="font-style:normal;font-variant:normal;font-weight:normal;font-stretch:normal;font-family:'Franklin Gothic Demi';-inkscape-font-specification:'Franklin Gothic Demi';fill:#992d2d;fill-opacity:1;stroke-width:0.26458332"
         id="path8006"
         inkscape:connector-curvature="0" />
      <path
         d="m 91.232283,115.4445 h -3.358968 q -0.0052,0.13953 -0.0052,0.24288 0,0.5581 0.294556,0.84232 0.299723,0.28422 0.713135,0.28422 0.769979,0 0.925008,-0.82165 l 1.395264,0.10335 q -0.583944,1.80868 -2.371949,1.80868 -0.780314,0 -1.328084,-0.31006 -0.542602,-0.31523 -0.89917,-0.91467 -0.351399,-0.59945 -0.351399,-1.43661 0,-1.2454 0.707967,-2.01021 0.713134,-0.76481 1.829345,-0.76481 1.007691,0 1.725993,0.71313 0.72347,0.70797 0.72347,2.26343 z m -3.364136,-0.894 h 1.855184 q -0.07235,-1.07487 -0.883667,-1.07487 -0.868164,0 -0.971517,1.07487 z"
         style="font-style:normal;font-variant:normal;font-weight:normal;font-stretch:normal;font-family:'Franklin Gothic Demi';-inkscape-font-specification:'Franklin Gothic Demi';fill:#992d2d;fill-opacity:1;stroke-width:0.26458332"
         id="path8008"
         inkscape:connector-curvature="0" />
      <path
         d="m 98.079576,110.74194 -2.123902,7.05384 h -1.777669 l -2.118734,-7.05384 h 1.756999 l 1.410767,5.04362 1.462443,-5.04362 z"
         style="font-style:normal;font-variant:normal;font-weight:normal;font-stretch:normal;font-family:'Franklin Gothic Demi';-inkscape-font-specification:'Franklin Gothic Demi';fill:#992d2d;fill-opacity:1;stroke-width:0.26458332"
         id="path8010"
         inkscape:connector-curvature="0" />
      <path
         d="m 103.47476,117.79578 h -1.49345 q -0.0723,-0.31006 -0.0723,-0.81649 -0.39274,0.5581 -0.78549,0.74414 -0.38757,0.18087 -0.88366,0.18087 -0.733808,0 -1.188561,-0.39791 -0.449585,-0.39791 -0.449585,-1.0697 0,-0.49093 0.26355,-0.90434 0.26355,-0.41341 0.847494,-0.64596 0.583942,-0.23771 2.129072,-0.3514 v -0.29972 q 0,-0.75964 -0.75965,-0.75964 -0.81132,0 -0.90433,0.75964 l -1.421106,-0.13436 q 0.139526,-0.88883 0.842326,-1.2609 0.7028,-0.37207 1.59163,-0.37207 0.53227,0 1.00253,0.12402 0.47025,0.12402 0.7338,0.37207 0.26355,0.24805 0.35657,0.5271 0.093,0.27388 0.093,0.96118 v 2.36678 q 0,0.68213 0.0982,0.97669 z m -1.63297,-2.50114 q -1.61748,0.16019 -1.61748,0.97668 0,0.27389 0.17054,0.47542 0.17053,0.19638 0.48575,0.19638 0.40825,0 0.68213,-0.3359 0.27906,-0.34107 0.27906,-0.83716 z"
         style="font-style:normal;font-variant:normal;font-weight:normal;font-stretch:normal;font-family:'Franklin Gothic Demi';-inkscape-font-specification:'Franklin Gothic Demi';fill:#992d2d;fill-opacity:1;stroke-width:0.26458332"
         id="path8012"
         inkscape:connector-curvature="0" />
      <path
         d="m 106.7047,117.79578 h -1.49345 v -5.21932 h 1.41077 v 0.97151 q 0.32556,-1.0852 1.12655,-1.0852 0.11368,0 0.27905,0.0155 v 1.51929 q -0.47026,0 -0.73381,0.14469 -0.25838,0.1447 -0.42374,0.52193 -0.16537,0.37207 -0.16537,1.0077 z"
         style="font-style:normal;font-variant:normal;font-weight:normal;font-stretch:normal;font-family:'Franklin Gothic Demi';-inkscape-font-specification:'Franklin Gothic Demi';fill:#992d2d;fill-opacity:1;stroke-width:0.26458332"
         id="path8014"
         inkscape:connector-curvature="0" />
      <path
         d="m 110.98884,112.57646 v 5.21932 h -1.53995 v -5.21932 z m 0,-1.97921 v 1.53996 h -1.53995 v -1.53996 z"
         style="font-style:normal;font-variant:normal;font-weight:normal;font-stretch:normal;font-family:'Franklin Gothic Demi';-inkscape-font-specification:'Franklin Gothic Demi';fill:#992d2d;fill-opacity:1;stroke-width:0.26458332"
         id="path8016"
         inkscape:connector-curvature="0" />
      <path
         d="m 117.37622,117.79578 h -1.49345 q -0.0724,-0.31006 -0.0724,-0.81649 -0.39274,0.5581 -0.78548,0.74414 -0.38757,0.18087 -0.88367,0.18087 -0.7338,0 -1.18856,-0.39791 -0.44958,-0.39791 -0.44958,-1.0697 0,-0.49093 0.26355,-0.90434 0.26355,-0.41341 0.84749,-0.64596 0.58395,-0.23771 2.12907,-0.3514 v -0.29972 q 0,-0.75964 -0.75964,-0.75964 -0.81132,0 -0.90434,0.75964 l -1.4211,-0.13436 q 0.13952,-0.88883 0.84232,-1.2609 0.7028,-0.37207 1.59164,-0.37207 0.53227,0 1.00252,0.12402 0.47026,0.12402 0.73381,0.37207 0.26355,0.24805 0.35656,0.5271 0.093,0.27388 0.093,0.96118 v 2.36678 q 0,0.68213 0.0982,0.97669 z m -1.63298,-2.50114 q -1.61747,0.16019 -1.61747,0.97668 0,0.27389 0.17053,0.47542 0.17053,0.19638 0.48576,0.19638 0.40824,0 0.68213,-0.3359 0.27905,-0.34107 0.27905,-0.83716 z"
         style="font-style:normal;font-variant:normal;font-weight:normal;font-stretch:normal;font-family:'Franklin Gothic Demi';-inkscape-font-specification:'Franklin Gothic Demi';fill:#992d2d;fill-opacity:1;stroke-width:0.26458332"
         id="path8018"
         inkscape:connector-curvature="0" />
      <path
         d="m 120.64233,110.74194 v 2.49081 q 0.41341,-0.76481 1.29191,-0.76481 0.89917,0 1.42111,0.72863 0.52193,0.72347 0.52193,1.98955 0,1.21956 -0.53744,1.96887 -0.53743,0.74931 -1.55029,0.74931 -0.5271,0 -0.85783,-0.18087 -0.33073,-0.18087 -0.66663,-0.72864 -0.14469,0.14986 -0.34106,0.80099 h -0.82165 v -7.05384 z m 0,4.98678 q 0,0.54777 0.22738,0.82682 0.23254,0.27905 0.55294,0.27905 0.3824,0 0.63045,-0.33589 0.24805,-0.34107 0.24805,-1.31775 0,-1.11104 -0.25839,-1.39526 -0.25321,-0.28423 -0.57877,-0.28423 -0.37724,0 -0.59945,0.3204 -0.22221,0.32039 -0.22221,0.9095 z"
         style="font-style:normal;font-variant:normal;font-weight:normal;font-stretch:normal;font-family:'Franklin Gothic Demi';-inkscape-font-specification:'Franklin Gothic Demi';fill:#992d2d;fill-opacity:1;stroke-width:0.26458332"
         id="path8020"
         inkscape:connector-curvature="0" />
      <path
         d="m 125.42773,117.79578 v -7.05384 h 1.53996 v 7.05384 z"
         style="font-style:normal;font-variant:normal;font-weight:normal;font-stretch:normal;font-family:'Franklin Gothic Demi';-inkscape-font-specification:'Franklin Gothic Demi';fill:#992d2d;fill-opacity:1;stroke-width:0.26458332"
         id="path8022"
         inkscape:connector-curvature="0" />
      <path
         d="m 133.48426,115.4445 h -3.35897 q -0.005,0.13953 -0.005,0.24288 0,0.5581 0.29456,0.84232 0.29972,0.28422 0.71313,0.28422 0.76998,0 0.92501,-0.82165 l 1.39526,0.10335 q -0.58394,1.80868 -2.37195,1.80868 -0.78031,0 -1.32808,-0.31006 -0.5426,-0.31523 -0.89917,-0.91467 -0.3514,-0.59945 -0.3514,-1.43661 0,-1.2454 0.70797,-2.01021 0.71313,-0.76481 1.82934,-0.76481 1.00769,0 1.726,0.71313 0.72347,0.70797 0.72347,2.26343 z m -3.36414,-0.894 h 1.85518 q -0.0723,-1.07487 -0.88366,-1.07487 -0.86817,0 -0.97152,1.07487 z"
         style="font-style:normal;font-variant:normal;font-weight:normal;font-stretch:normal;font-family:'Franklin Gothic Demi';-inkscape-font-specification:'Franklin Gothic Demi';fill:#992d2d;fill-opacity:1;stroke-width:0.26458332"
         id="path8024"
         inkscape:connector-curvature="0" />
    </g>
    <g
       aria-label="="
       style="font-style:normal;font-variant:normal;font-weight:normal;font-stretch:normal;font-size:10.58333302px;line-height:1.25;font-family:'Franklin Gothic Heavy';-inkscape-font-specification:'Franklin Gothic Heavy, ';letter-spacing:0.55827081px;word-spacing:0px;fill:#00a0aa;fill-opacity:1;stroke:none;stroke-width:0.26458332"
       id="text4534">
      <path
         d="m 144.66766,113.19358 v 1.12654 h -5.22965 v -1.12654 z m 0,1.93786 v 1.13172 h -5.22965 v -1.13172 z"
         style="font-style:normal;font-variant:normal;font-weight:normal;font-stretch:normal;font-family:'Franklin Gothic Demi';-inkscape-font-specification:'Franklin Gothic Demi';fill:#00a0aa;fill-opacity:1;stroke-width:0.26458332"
         id="path8027"
         inkscape:connector-curvature="0" />
    </g>
    <g
       aria-label="3"
       style="font-style:normal;font-variant:normal;font-weight:normal;font-stretch:normal;font-size:10.58333302px;line-height:1.25;font-family:'Franklin Gothic Heavy';-inkscape-font-specification:'Franklin Gothic Heavy, ';letter-spacing:0.55827081px;word-spacing:0px;fill:#e07900;fill-opacity:1;stroke:none;stroke-width:0.26458332"
       id="text4538">
      <path
         d="m 152.18329,113.75299 h 0.74414 q 0.63562,0 0.863,-0.26355 0.22738,-0.26355 0.22738,-0.56327 0,-0.3359 -0.25322,-0.59428 -0.24804,-0.26355 -0.69763,-0.26355 -0.85783,0 -1.08004,0.90434 l -1.46244,-0.23255 q 0.18087,-0.81648 0.87333,-1.34875 0.69763,-0.53744 1.71566,-0.53744 1.06453,0 1.788,0.50643 0.72864,0.50643 0.72864,1.38493 0,1.15238 -1.20923,1.57613 1.4211,0.37724 1.4211,1.67432 0,0.93017 -0.72863,1.52962 -0.72347,0.59945 -1.99988,0.59945 -1.22473,0 -1.94303,-0.61495 -0.71314,-0.62012 -0.85783,-1.53479 l 1.49861,-0.21704 q 0.21704,1.09554 1.26091,1.09554 0.48576,0 0.78548,-0.25839 0.30489,-0.25838 0.30489,-0.69246 0,-0.45992 -0.27905,-0.6873 -0.27389,-0.22737 -1.0542,-0.22737 h -0.64596 z"
         style="font-style:normal;font-variant:normal;font-weight:normal;font-stretch:normal;font-family:'Franklin Gothic Demi';-inkscape-font-specification:'Franklin Gothic Demi';fill:#e07900;fill-opacity:1;stroke-width:0.26458332"
         id="path8030"
         inkscape:connector-curvature="0" />
    </g>
    <g
       aria-label=";"
       style="font-style:normal;font-variant:normal;font-weight:normal;font-stretch:normal;font-size:10.58333302px;line-height:1.25;font-family:'Franklin Gothic Heavy';-inkscape-font-specification:'Franklin Gothic Heavy, ';letter-spacing:0.55827081px;word-spacing:0px;fill:#628f1b;fill-opacity:1;stroke:none;stroke-width:0.26458332"
       id="text4542">
      <path
         d="m 159.27975,112.66284 v 1.55546 h -1.60197 v -1.55546 z m 0,3.63802 v 1.44694 l -1.03353,1.80867 h -0.56844 l 0.80098,-1.65364 h -0.80098 v -1.60197 z"
         style="font-style:normal;font-variant:normal;font-weight:normal;font-stretch:normal;font-family:'Franklin Gothic Demi';-inkscape-font-specification:'Franklin Gothic Demi';fill:#628f1b;fill-opacity:1;stroke-width:0.26458332"
         id="path8045"
         inkscape:connector-curvature="0" />
    </g>
  </g>
  <g
     inkscape:groupmode="layer"
     id="layer2"
     inkscape:label="int"
     transform="translate(-10.16309,-79.252798)">
    <text
       xml:space="preserve"
       style="font-style:normal;font-variant:normal;font-weight:normal;font-stretch:normal;font-size:10.58333302px;line-height:1.25;font-family:'Franklin Gothic Heavy';-inkscape-font-specification:'Franklin Gothic Heavy, ';letter-spacing:0.55827081px;word-spacing:0px;fill:#000000;fill-opacity:1;stroke:none;stroke-width:0.26458332"
       x="10.423512"
       y="108.04044"
       id="text4515"><tspan
         sodipodi:role="line"
         id="tspan4513"
         x="10.423512"
         y="117.68837"
         style="stroke-width:0.26458332" /></text>
    <g
       aria-label="int "
       style="font-style:normal;font-variant:normal;font-weight:normal;font-stretch:normal;font-size:10.58333302px;line-height:1.25;font-family:'Franklin Gothic Heavy';-inkscape-font-specification:'Franklin Gothic Heavy, ';letter-spacing:1.13241673px;word-spacing:0px;fill:#1964b9;fill-opacity:1;stroke:none;stroke-width:0.26458332"
       id="text4519">
      <path
         d="m 41.295973,112.64327 v 5.21932 h -1.539957 v -5.21932 z m 0,-1.97921 v 1.53996 h -1.539957 v -1.53996 z"
         style="font-style:normal;font-variant:normal;font-weight:normal;font-stretch:normal;font-family:'Franklin Gothic Demi';-inkscape-font-specification:'Franklin Gothic Demi';letter-spacing:1.13241673px;fill:#1964b9;fill-opacity:1;stroke-width:0.26458332"
         id="path8217"
         inkscape:connector-curvature="0" />
      <path
         d="m 48.236821,117.86259 h -1.539958 v -2.93006 q 0,-0.53226 -0.04134,-0.72863 -0.04134,-0.19637 -0.201538,-0.33073 -0.160197,-0.13953 -0.403076,-0.13953 -0.81132,0 -0.81132,1.19889 v 2.93006 H 43.69963 v -5.21932 h 1.431437 v 0.88366 q 0.356568,-0.63045 0.7028,-0.81132 0.346232,-0.18086 0.749308,-0.18086 0.744141,0 1.198893,0.40307 0.454753,0.39791 0.454753,1.57097 z"
         style="font-style:normal;font-variant:normal;font-weight:normal;font-stretch:normal;font-family:'Franklin Gothic Demi';-inkscape-font-specification:'Franklin Gothic Demi';letter-spacing:1.13241673px;fill:#1964b9;fill-opacity:1;stroke-width:0.26458332"
         id="path8219"
         inkscape:connector-curvature="0" />
      <path
         d="m 52.371639,113.84216 v 2.20658 q 0,0.41342 0.124023,0.55294 0.124023,0.13953 0.583944,0.13953 0.211873,0 0.490926,-0.0207 v 1.14205 q -0.671794,0.11369 -0.96635,0.11369 -0.961181,0 -1.364257,-0.36691 -0.403076,-0.37207 -0.403076,-1.33842 v -2.42879 h -0.826823 v -1.19889 h 0.914672 l 0.124024,-1.53996 1.322917,-0.10335 v 1.64331 h 1.126546 v 1.19889 z"
         style="font-style:normal;font-variant:normal;font-weight:normal;font-stretch:normal;font-family:'Franklin Gothic Demi';-inkscape-font-specification:'Franklin Gothic Demi';letter-spacing:1.13241673px;fill:#1964b9;fill-opacity:1;stroke-width:0.26458332"
         id="path8221"
         inkscape:connector-curvature="0" />
    </g>
    <g
       aria-label="Datentyp
(ganze Zahlen)"
       style="font-style:normal;font-variant:normal;font-weight:normal;font-stretch:normal;font-size:7.05555534px;line-height:1.25;font-family:'Franklin Gothic Book';-inkscape-font-specification:'Franklin Gothic Book, ';text-align:end;letter-spacing:0px;word-spacing:0px;text-anchor:end;fill:#1964b9;fill-opacity:1;stroke:none;stroke-width:0.26458332"
       id="text4546">
      <path
         d="m 28.595272,84.955353 v -4.702555 h 1.577854 q 0.995633,0 1.550293,0.678683 0.55466,0.678684 0.55466,1.660536 0,0.995633 -0.54088,1.681207 -0.54088,0.682129 -1.371148,0.682129 z m 0.589112,-0.499539 h 0.954291 q 0.757921,0 1.150662,-0.523655 0.392741,-0.523654 0.392741,-1.381483 0,-0.695909 -0.375516,-1.250569 -0.37207,-0.554661 -1.167887,-0.554661 h -0.954291 z"
         style="text-align:end;text-anchor:end;fill:#145196;fill-opacity:1;stroke-width:0.26458332"
         id="path8114"
         inkscape:connector-curvature="0" />
      <path
         d="m 35.833418,84.955353 h -0.537435 q -0.03101,-0.165365 -0.06201,-0.627008 -0.35829,0.720025 -1.219563,0.720025 -0.585667,0 -0.89917,-0.310058 -0.313504,-0.310059 -0.313504,-0.744141 0,-0.527099 0.447862,-0.864719 0.447863,-0.341064 1.522733,-0.341064 0.144694,0 0.461642,0.01378 0,-0.413411 -0.06546,-0.596001 -0.06201,-0.186035 -0.268718,-0.296279 -0.206706,-0.110243 -0.544325,-0.110243 -0.823378,0 -0.957736,0.627008 l -0.499539,-0.08613 q 0.18259,-0.961181 1.536512,-0.961181 0.720025,0 1.019749,0.320394 0.303168,0.316948 0.303168,1.10243 v 1.477946 q 0,0.368625 0.07579,0.675239 z M 35.233971,83.21558 q -0.330729,-0.02067 -0.502984,-0.02067 -0.640787,0 -0.995632,0.210151 -0.354845,0.210151 -0.354845,0.613227 0,0.254937 0.18948,0.434082 0.192926,0.179145 0.554661,0.179145 0.489203,0 0.802707,-0.354845 0.316949,-0.354845 0.316949,-0.833713 0,-0.09646 -0.01034,-0.227376 z"
         style="text-align:end;text-anchor:end;fill:#145196;fill-opacity:1;stroke-width:0.26458332"
         id="path8116"
         inkscape:connector-curvature="0" />
      <path
         d="m 38.420684,84.583282 v 0.427192 q -0.285942,0.0379 -0.496093,0.0379 -1.009413,0 -1.009413,-1.054199 V 81.899557 H 36.298506 V 81.47581 h 0.616672 l 0.02412,-0.875054 0.502984,-0.04823 v 0.923285 h 0.778592 v 0.423747 h -0.778592 v 2.184191 q 0,0.537435 0.558106,0.537435 0.186035,0 0.420301,-0.0379 z"
         style="text-align:end;text-anchor:end;fill:#145196;fill-opacity:1;stroke-width:0.26458332"
         id="path8118"
         inkscape:connector-curvature="0" />
      <path
         d="m 41.200877,83.918379 0.502984,0.103353 q -0.137804,0.444417 -0.537435,0.73725 -0.399631,0.289388 -0.940511,0.289388 -0.713135,0 -1.154107,-0.499538 -0.440972,-0.502984 -0.440972,-1.316027 0,-0.830268 0.458197,-1.340142 0.458198,-0.513319 1.150662,-0.513319 0.682129,0 1.09554,0.471978 0.416857,0.471978 0.427192,1.412489 h -2.5287 q 0,0.788927 0.330729,1.064534 0.33073,0.275608 0.699355,0.275608 0.664903,0 0.937066,-0.685574 z m -0.03101,-1.057644 q -0.0069,-0.292833 -0.09646,-0.52021 -0.08957,-0.227376 -0.303168,-0.38585 -0.213596,-0.16192 -0.513319,-0.16192 -0.403077,0 -0.685574,0.289388 -0.279053,0.289388 -0.313504,0.778592 z"
         style="text-align:end;text-anchor:end;fill:#145196;fill-opacity:1;stroke-width:0.26458332"
         id="path8120"
         inkscape:connector-curvature="0" />
      <path
         d="m 45.331547,84.955353 h -0.506429 v -2.235867 q 0,-0.482313 -0.210151,-0.678684 -0.210151,-0.19637 -0.509874,-0.19637 -0.413412,0 -0.69591,0.330729 -0.279052,0.330729 -0.279052,0.871609 v 1.908583 h -0.54088 v -3.479547 h 0.502984 v 0.640788 q 0.423746,-0.73725 1.098985,-0.73725 0.389296,0 0.661458,0.20326 0.275608,0.199816 0.375516,0.451308 0.103353,0.251492 0.103353,0.909505 z"
         style="text-align:end;text-anchor:end;fill:#145196;fill-opacity:1;stroke-width:0.26458332"
         id="path8122"
         inkscape:connector-curvature="0" />
      <path
         d="m 47.99805,84.583282 v 0.427192 q -0.285943,0.0379 -0.496093,0.0379 -1.009413,0 -1.009413,-1.054199 V 81.899557 H 45.875872 V 81.47581 h 0.616672 l 0.02411,-0.875054 0.502984,-0.04823 v 0.923285 h 0.778592 v 0.423747 h -0.778592 v 2.184191 q 0,0.537435 0.558106,0.537435 0.186035,0 0.420301,-0.0379 z"
         style="text-align:end;text-anchor:end;fill:#145196;fill-opacity:1;stroke-width:0.26458332"
         id="path8124"
         inkscape:connector-curvature="0" />
      <path
         d="m 50.984947,81.475806 -1.395263,3.886068 q -0.303169,0.840603 -0.968072,0.840603 -0.210151,0 -0.465088,-0.07235 v -0.423746 q 0.210151,0.04823 0.361735,0.04823 0.258382,0 0.430637,-0.148139 0.1757,-0.148139 0.347955,-0.71658 l -1.202339,-3.41409 h 0.551216 l 0.930175,2.614828 0.954292,-2.614828 z"
         style="text-align:end;text-anchor:end;fill:#145196;fill-opacity:1;stroke-width:0.26458332"
         id="path8126"
         inkscape:connector-curvature="0" />
      <path
         d="m 52.073597,86.13013 h -0.54088 v -4.654324 h 0.485758 v 0.675239 q 0.368626,-0.771701 1.098986,-0.771701 0.616672,0 0.995632,0.516764 0.378961,0.513319 0.378961,1.302246 0,0.850939 -0.389296,1.350478 -0.389296,0.499538 -0.999078,0.499538 -0.654568,0 -1.030083,-0.623562 z m 0,-3.417534 v 0.978407 q 0.05168,0.396186 0.334174,0.654568 0.282498,0.258382 0.589111,0.258382 0.354845,0 0.627008,-0.310059 0.275607,-0.310058 0.275607,-1.071424 0,-0.658013 -0.248046,-1.012858 -0.248047,-0.35829 -0.658014,-0.35829 -0.323839,0 -0.582221,0.251492 -0.254937,0.251492 -0.337619,0.609782 z"
         style="text-align:end;text-anchor:end;fill:#145196;fill-opacity:1;stroke-width:0.26458332"
         id="path8128"
         inkscape:connector-curvature="0" />
      <path
         d="m 12.537683,94.949574 h -0.361735 q -1.012858,-1.329806 -1.012858,-2.945556 0,-1.543403 1.012858,-2.931776 h 0.361735 q -0.871609,1.298801 -0.871609,2.938666 0,1.564073 0.871609,2.938666 z"
         style="text-align:end;text-anchor:end;fill:#145196;fill-opacity:1;stroke-width:0.26458332"
         id="path8130"
         inkscape:connector-curvature="0" />
      <path
         d="m 16.244605,89.750926 v 0.430636 q -0.37207,0 -0.499538,0.08613 -0.124024,0.08613 -0.165365,0.310058 0.334174,0.385851 0.334174,0.840604 0,0.475423 -0.36518,0.816487 -0.361735,0.341065 -0.974962,0.341065 -0.137804,0 -0.237711,-0.02067 -0.189481,-0.0379 -0.237712,-0.0379 -0.09302,0 -0.223931,0.09302 -0.130914,0.08957 -0.130914,0.234266 0,0.206706 0.18948,0.268718 0.189481,0.06201 0.89228,0.07924 0.596002,0.01722 0.878499,0.08268 0.285943,0.06201 0.482314,0.282498 0.19637,0.217041 0.19637,0.53399 0,0.995632 -1.750108,0.995632 -0.830268,0 -1.212674,-0.251492 -0.37896,-0.248047 -0.37896,-0.664903 0,-0.506429 0.530544,-0.695909 -0.341064,-0.223932 -0.341064,-0.561551 0,-0.403076 0.482313,-0.616672 -0.451307,-0.36518 -0.451307,-0.91984 0,-0.516765 0.38585,-0.847494 0.385851,-0.330729 0.940512,-0.330729 0.39274,0 0.713134,0.148139 0.05168,-0.341064 0.237712,-0.471978 0.18948,-0.130914 0.571886,-0.130914 0.0379,0 0.134358,0.0069 z m -1.653645,2.411566 q 0.344509,0 0.56155,-0.21015 0.217041,-0.213596 0.217041,-0.551216 0,-0.344509 -0.227376,-0.56155 -0.223931,-0.220486 -0.544325,-0.220486 -0.306614,0 -0.544325,0.206705 -0.237712,0.203261 -0.237712,0.582221 0,0.33762 0.213596,0.547771 0.213596,0.206705 0.561551,0.206705 z m -0.647678,1.471056 q -0.378961,0.165365 -0.378961,0.478868 0,0.265273 0.310059,0.409967 0.313503,0.148139 0.795817,0.148139 0.447862,0 0.819932,-0.127469 0.372071,-0.124023 0.372071,-0.423746 0,-0.16192 -0.110243,-0.265273 -0.110243,-0.103353 -0.303169,-0.130913 -0.18948,-0.02756 -0.664903,-0.04134 -0.568441,-0.01378 -0.840603,-0.04823 z"
         style="text-align:end;text-anchor:end;fill:#145196;fill-opacity:1;stroke-width:0.26458332"
         id="path8132"
         inkscape:connector-curvature="0" />
      <path
         d="m 19.600128,93.774797 h -0.537434 q -0.03101,-0.165365 -0.06201,-0.627007 -0.35829,0.720025 -1.219564,0.720025 -0.585666,0 -0.89917,-0.310059 -0.313504,-0.310059 -0.313504,-0.744141 0,-0.527099 0.447863,-0.864719 0.447862,-0.341064 1.522732,-0.341064 0.144694,0 0.461643,0.01378 0,-0.413411 -0.06546,-0.596001 -0.06201,-0.186035 -0.268717,-0.296278 -0.206706,-0.110243 -0.544326,-0.110243 -0.823377,0 -0.957736,0.627007 l -0.499539,-0.08613 q 0.18259,-0.961182 1.536513,-0.961182 0.720025,0 1.019748,0.320394 0.303168,0.316949 0.303168,1.10243 v 1.477946 q 0,0.368625 0.07579,0.675239 z m -0.599446,-1.739773 q -0.330729,-0.02067 -0.502984,-0.02067 -0.640788,0 -0.995633,0.210151 -0.354845,0.210151 -0.354845,0.613227 0,0.254937 0.189481,0.434082 0.192925,0.179145 0.55466,0.179145 0.489204,0 0.802707,-0.354845 0.316949,-0.354845 0.316949,-0.833713 0,-0.09646 -0.01033,-0.227376 z"
         style="text-align:end;text-anchor:end;fill:#145196;fill-opacity:1;stroke-width:0.26458332"
         id="path8134"
         inkscape:connector-curvature="0" />
      <path
         d="M 23.351837,93.774797 H 22.845408 V 91.53893 q 0,-0.482313 -0.210151,-0.678684 -0.210151,-0.19637 -0.509874,-0.19637 -0.413411,0 -0.695909,0.330729 -0.279053,0.330729 -0.279053,0.871609 v 1.908583 h -0.54088 v -3.479546 h 0.502984 v 0.640787 q 0.423747,-0.73725 1.098986,-0.73725 0.389295,0 0.661458,0.203261 0.275607,0.199815 0.375515,0.451307 0.103353,0.251492 0.103353,0.909505 z"
         style="text-align:end;text-anchor:end;fill:#145196;fill-opacity:1;stroke-width:0.26458332"
         id="path8136"
         inkscape:connector-curvature="0" />
      <path
         d="m 26.697025,93.35794 v 0.416857 H 24.133874 V 93.35794 l 1.850016,-2.638943 h -1.708767 v -0.423746 h 2.421902 v 0.292833 l -1.915473,2.769856 z"
         style="text-align:end;text-anchor:end;fill:#145196;fill-opacity:1;stroke-width:0.26458332"
         id="path8138"
         inkscape:connector-curvature="0" />
      <path
         d="m 29.728709,92.737823 0.502984,0.103353 q -0.137804,0.444417 -0.537435,0.737251 -0.399631,0.289388 -0.940511,0.289388 -0.713135,0 -1.154107,-0.499539 -0.440972,-0.502984 -0.440972,-1.316027 0,-0.830268 0.458197,-1.340142 0.458198,-0.513319 1.150662,-0.513319 0.682129,0 1.095541,0.471978 0.416856,0.471978 0.427191,1.412489 h -2.5287 q 0,0.788927 0.33073,1.064535 0.330729,0.275607 0.699354,0.275607 0.664903,0 0.937066,-0.685574 z m -0.03101,-1.057644 q -0.0069,-0.292833 -0.09646,-0.520209 -0.08957,-0.227377 -0.303168,-0.385851 -0.213596,-0.16192 -0.513319,-0.16192 -0.403076,0 -0.685574,0.289388 -0.279053,0.289388 -0.313504,0.778592 z"
         style="text-align:end;text-anchor:end;fill:#145196;fill-opacity:1;stroke-width:0.26458332"
         id="path8140"
         inkscape:connector-curvature="0" />
      <path
         d="m 35.843753,93.271813 v 0.502984 h -3.317627 v -0.502984 l 2.552816,-3.689697 H 32.64326 v -0.478868 h 3.124701 v 0.39274 l -2.583822,3.775825 z"
         style="text-align:end;text-anchor:end;fill:#145196;fill-opacity:1;stroke-width:0.26458332"
         id="path8142"
         inkscape:connector-curvature="0" />
      <path
         d="m 39.278513,93.774797 h -0.537435 q -0.03101,-0.165365 -0.06201,-0.627007 -0.35829,0.720025 -1.219564,0.720025 -0.585666,0 -0.89917,-0.310059 -0.313503,-0.310059 -0.313503,-0.744141 0,-0.527099 0.447862,-0.864719 0.447863,-0.341064 1.522732,-0.341064 0.144694,0 0.461643,0.01378 0,-0.413411 -0.06546,-0.596001 -0.06201,-0.186035 -0.268717,-0.296278 -0.206706,-0.110243 -0.544325,-0.110243 -0.823378,0 -0.957737,0.627007 l -0.499539,-0.08613 q 0.18259,-0.961182 1.536513,-0.961182 0.720025,0 1.019748,0.320394 0.303169,0.316949 0.303169,1.10243 v 1.477946 q 0,0.368625 0.07579,0.675239 z m -0.599447,-1.739773 q -0.330729,-0.02067 -0.502984,-0.02067 -0.640788,0 -0.995632,0.210151 -0.354845,0.210151 -0.354845,0.613227 0,0.254937 0.18948,0.434082 0.192925,0.179145 0.55466,0.179145 0.489204,0 0.802708,-0.354845 0.316948,-0.354845 0.316948,-0.833713 0,-0.09646 -0.01033,-0.227376 z"
         style="text-align:end;text-anchor:end;fill:#145196;fill-opacity:1;stroke-width:0.26458332"
         id="path8144"
         inkscape:connector-curvature="0" />
      <path
         d="m 43.016442,93.774797 h -0.54088 v -2.111844 q 0,-0.37207 -0.04823,-0.558105 -0.04479,-0.186035 -0.220486,-0.320394 -0.172255,-0.137804 -0.399631,-0.137804 -0.416857,0 -0.699354,0.341065 -0.279053,0.341064 -0.279053,0.91295 v 1.874132 h -0.54088 v -4.702555 h 0.54088 v 1.863796 q 0.368625,-0.73725 1.054199,-0.73725 0.306614,0 0.544325,0.120578 0.241157,0.120579 0.368625,0.316949 0.127469,0.196371 0.172255,0.389296 0.04823,0.18948 0.04823,0.637342 z"
         style="text-align:end;text-anchor:end;fill:#145196;fill-opacity:1;stroke-width:0.26458332"
         id="path8146"
         inkscape:connector-curvature="0" />
      <path
         d="m 44.645973,93.774797 h -0.54088 v -4.702555 h 0.54088 z"
         style="text-align:end;text-anchor:end;fill:#145196;fill-opacity:1;stroke-width:0.26458332"
         id="path8148"
         inkscape:connector-curvature="0" />
      <path
         d="m 48.029055,92.737823 0.502984,0.103353 q -0.137804,0.444417 -0.537435,0.737251 -0.399631,0.289388 -0.940511,0.289388 -0.713134,0 -1.154107,-0.499539 -0.440972,-0.502984 -0.440972,-1.316027 0,-0.830268 0.458198,-1.340142 0.458197,-0.513319 1.150662,-0.513319 0.682129,0 1.09554,0.471978 0.416857,0.471978 0.427192,1.412489 h -2.5287 q 0,0.788927 0.330729,1.064535 0.330729,0.275607 0.699354,0.275607 0.664904,0 0.937066,-0.685574 z m -0.03101,-1.057644 q -0.0069,-0.292833 -0.09646,-0.520209 -0.08957,-0.227377 -0.303169,-0.385851 -0.213596,-0.16192 -0.513319,-0.16192 -0.403076,0 -0.685574,0.289388 -0.279053,0.289388 -0.313504,0.778592 z"
         style="text-align:end;text-anchor:end;fill:#145196;fill-opacity:1;stroke-width:0.26458332"
         id="path8150"
         inkscape:connector-curvature="0" />
      <path
         d="M 52.152836,93.774797 H 51.646407 V 91.53893 q 0,-0.482313 -0.210151,-0.678684 -0.210151,-0.19637 -0.509874,-0.19637 -0.413412,0 -0.695909,0.330729 -0.279053,0.330729 -0.279053,0.871609 v 1.908583 h -0.54088 v -3.479546 h 0.502984 v 0.640787 q 0.423747,-0.73725 1.098985,-0.73725 0.389296,0 0.661459,0.203261 0.275607,0.199815 0.375515,0.451307 0.103353,0.251492 0.103353,0.909505 z"
         style="text-align:end;text-anchor:end;fill:#145196;fill-opacity:1;stroke-width:0.26458332"
         id="path8152"
         inkscape:connector-curvature="0" />
      <path
         d="m 53.027888,89.072242 h 0.35829 q 1.016303,1.329807 1.016303,2.945556 0,1.543403 -1.016303,2.931776 h -0.35829 q 0.871609,-1.2988 0.871609,-2.938666 0,-1.564073 -0.871609,-2.938666 z"
         style="text-align:end;text-anchor:end;fill:#145196;fill-opacity:1;stroke-width:0.26458332"
         id="path8154"
         inkscape:connector-curvature="0" />
    </g>
    <g
       aria-label="Bezeichnung"
       style="font-style:normal;font-variant:normal;font-weight:normal;font-stretch:normal;font-size:7.05555534px;line-height:1.25;font-family:'Franklin Gothic Book';-inkscape-font-specification:'Franklin Gothic Book, ';letter-spacing:0px;word-spacing:0px;fill:#992d2d;fill-opacity:1;stroke:none;stroke-width:0.26458332"
       id="text4556">
      <path
         d="m 65.834709,93.767868 v -4.702555 h 1.860352 q 0.702799,0 1.040418,0.344509 0.341065,0.34451 0.341065,0.799263 0,0.799262 -0.833713,1.061089 0.496094,0.127468 0.73725,0.454752 0.241157,0.327285 0.241157,0.740696 0,0.55466 -0.375515,0.930176 -0.372071,0.37207 -1.150662,0.37207 z m 0.568441,-2.687174 h 1.023193 q 0.637343,0 0.850939,-0.241157 0.213596,-0.244602 0.213596,-0.571886 0,-0.323839 -0.230822,-0.523654 -0.227376,-0.199816 -0.682129,-0.199816 H 66.40315 Z m 0,2.17041 h 1.260905 q 0.461643,0 0.713135,-0.223931 0.251492,-0.223932 0.251492,-0.582222 0,-0.251492 -0.113689,-0.465087 -0.113688,-0.217041 -0.320394,-0.334175 -0.206705,-0.117133 -0.616672,-0.117133 H 66.40315 Z"
         style="fill:#862828;fill-opacity:1;stroke-width:0.26458332"
         id="path8194"
         inkscape:connector-curvature="0" />
      <path
         d="m 72.356275,92.730894 0.502984,0.103353 q -0.137804,0.444417 -0.537435,0.737251 -0.399631,0.289388 -0.940511,0.289388 -0.713135,0 -1.154107,-0.499539 -0.440972,-0.502984 -0.440972,-1.316027 0,-0.830268 0.458197,-1.340142 0.458198,-0.513319 1.150662,-0.513319 0.682129,0 1.09554,0.471978 0.416857,0.471978 0.427192,1.412489 h -2.5287 q 0,0.788927 0.330729,1.064535 0.33073,0.275607 0.699355,0.275607 0.664903,0 0.937066,-0.685574 z m -0.03101,-1.057644 q -0.0069,-0.292833 -0.09646,-0.520209 -0.08957,-0.227377 -0.303168,-0.385851 -0.213596,-0.16192 -0.513319,-0.16192 -0.403077,0 -0.685574,0.289388 -0.279053,0.289389 -0.313504,0.778592 z"
         style="fill:#862828;fill-opacity:1;stroke-width:0.26458332"
         id="path8196"
         inkscape:connector-curvature="0" />
      <path
         d="m 75.994295,93.351012 v 0.416856 h -2.563151 v -0.416856 l 1.850017,-2.638944 h -1.708768 v -0.423746 h 2.421902 v 0.292833 l -1.915473,2.769857 z"
         style="fill:#862828;fill-opacity:1;stroke-width:0.26458332"
         id="path8198"
         inkscape:connector-curvature="0" />
      <path
         d="m 79.025979,92.730894 0.502984,0.103353 q -0.137804,0.444417 -0.537435,0.737251 -0.399631,0.289388 -0.940511,0.289388 -0.713135,0 -1.154107,-0.499539 -0.440972,-0.502984 -0.440972,-1.316027 0,-0.830268 0.458198,-1.340142 0.458197,-0.513319 1.150662,-0.513319 0.682128,0 1.09554,0.471978 0.416856,0.471978 0.427192,1.412489 h -2.5287 q 0,0.788927 0.330729,1.064535 0.330729,0.275607 0.699354,0.275607 0.664904,0 0.937066,-0.685574 z m -0.03101,-1.057644 q -0.0069,-0.292833 -0.09646,-0.520209 -0.08957,-0.227377 -0.303169,-0.385851 -0.213596,-0.16192 -0.513319,-0.16192 -0.403076,0 -0.685574,0.289388 -0.279053,0.289389 -0.313504,0.778592 z"
         style="fill:#862828;fill-opacity:1;stroke-width:0.26458332"
         id="path8200"
         inkscape:connector-curvature="0" />
      <path
         d="m 80.965568,89.065313 v 0.599446 h -0.582221 v -0.599446 z m -0.01723,1.223009 v 3.479546 h -0.54088 v -3.479546 z"
         style="fill:#862828;fill-opacity:1;stroke-width:0.26458332"
         id="path8202"
         inkscape:connector-curvature="0" />
      <path
         d="m 84.09027,92.548304 0.489204,0.08613 q -0.103353,0.575331 -0.458198,0.902615 -0.354845,0.323839 -0.88539,0.323839 -0.720025,0 -1.098985,-0.530545 -0.375515,-0.530545 -0.375515,-1.295356 0,-0.792372 0.396186,-1.316026 0.399631,-0.5271 1.085205,-0.5271 0.56844,0 0.909505,0.341064 0.344509,0.33762 0.427192,0.875055 L 84.09027,91.501 q -0.137804,-0.861274 -0.833713,-0.861274 -0.447862,0 -0.689019,0.382406 -0.241157,0.378961 -0.241157,0.985297 0,0.668349 0.237712,1.040419 0.241156,0.368625 0.675239,0.368625 0.671793,0 0.850938,-0.868164 z"
         style="fill:#862828;fill-opacity:1;stroke-width:0.26458332"
         id="path8204"
         inkscape:connector-curvature="0" />
      <path
         d="m 88.055574,93.767868 h -0.54088 v -2.111843 q 0,-0.372071 -0.04823,-0.558106 -0.04479,-0.186035 -0.220486,-0.320394 -0.172255,-0.137804 -0.399631,-0.137804 -0.416857,0 -0.699355,0.341065 -0.279052,0.341064 -0.279052,0.91295 v 1.874132 h -0.54088 v -4.702555 h 0.54088 v 1.863796 q 0.368625,-0.73725 1.054199,-0.73725 0.306613,0 0.544325,0.120578 0.241156,0.120579 0.368625,0.316949 0.127469,0.196371 0.172255,0.389296 0.04823,0.18948 0.04823,0.637343 z"
         style="fill:#862828;fill-opacity:1;stroke-width:0.26458332"
         id="path8206"
         inkscape:connector-curvature="0" />
      <path
         d="m 91.88652,93.767868 h -0.506429 v -2.235867 q 0,-0.482313 -0.210151,-0.678684 -0.210151,-0.19637 -0.509874,-0.19637 -0.413412,0 -0.695909,0.330729 -0.279053,0.330729 -0.279053,0.871609 v 1.908583 h -0.54088 v -3.479546 h 0.502984 v 0.640787 q 0.423747,-0.73725 1.098985,-0.73725 0.389296,0 0.661459,0.203261 0.275607,0.199815 0.375515,0.451307 0.103353,0.251492 0.103353,0.909505 z"
         style="fill:#862828;fill-opacity:1;stroke-width:0.26458332"
         id="path8208"
         inkscape:connector-curvature="0" />
      <path
         d="m 95.714021,93.767868 h -0.485759 v -0.664903 q -0.37207,0.757921 -1.10932,0.757921 -0.53399,0 -0.840604,-0.3514 -0.303168,-0.3514 -0.303168,-0.999078 v -2.222086 h 0.54088 v 2.222086 q 0,0.516765 0.213596,0.713135 0.217041,0.192925 0.475423,0.192925 0.261827,0 0.471978,-0.148139 0.213596,-0.148139 0.354845,-0.420301 0.141249,-0.275608 0.141249,-0.599447 v -1.960259 h 0.54088 z"
         style="fill:#862828;fill-opacity:1;stroke-width:0.26458332"
         id="path8210"
         inkscape:connector-curvature="0" />
      <path
         d="m 99.534631,93.767868 h -0.506429 v -2.235867 q 0,-0.482313 -0.210151,-0.678684 -0.21015,-0.19637 -0.509874,-0.19637 -0.413411,0 -0.695909,0.330729 -0.279053,0.330729 -0.279053,0.871609 v 1.908583 h -0.54088 v -3.479546 h 0.502984 v 0.640787 q 0.423747,-0.73725 1.098986,-0.73725 0.389295,0 0.661458,0.203261 0.275608,0.199815 0.375515,0.451307 0.103353,0.251492 0.103353,0.909505 z"
         style="fill:#862828;fill-opacity:1;stroke-width:0.26458332"
         id="path8212"
         inkscape:connector-curvature="0" />
      <path
         d="m 103.46548,89.743997 v 0.430637 q -0.37207,0 -0.49953,0.08613 -0.12403,0.08613 -0.16537,0.310059 0.33418,0.38585 0.33418,0.840603 0,0.475423 -0.36518,0.816487 -0.36174,0.341065 -0.97497,0.341065 -0.1378,0 -0.23771,-0.02067 -0.18948,-0.0379 -0.23771,-0.0379 -0.093,0 -0.22393,0.09302 -0.13091,0.08957 -0.13091,0.234266 0,0.206706 0.18948,0.268718 0.18948,0.06201 0.89228,0.07924 0.596,0.01722 0.87849,0.08268 0.28595,0.06201 0.48232,0.282498 0.19637,0.217041 0.19637,0.53399 0,0.995632 -1.75011,0.995632 -0.83027,0 -1.21267,-0.251492 -0.37896,-0.248046 -0.37896,-0.664903 0,-0.506429 0.53054,-0.695909 -0.34106,-0.223931 -0.34106,-0.561551 0,-0.403076 0.48231,-0.616672 -0.45131,-0.36518 -0.45131,-0.91984 0,-0.516765 0.38585,-0.847494 0.38585,-0.330729 0.94051,-0.330729 0.39274,0 0.71314,0.148139 0.0517,-0.341064 0.23771,-0.471978 0.18948,-0.130914 0.57189,-0.130914 0.0379,0 0.13435,0.0069 z m -1.65364,2.411566 q 0.34451,0 0.56155,-0.21015 0.21704,-0.213596 0.21704,-0.551216 0,-0.344509 -0.22738,-0.56155 -0.22393,-0.220486 -0.54432,-0.220486 -0.30661,0 -0.54433,0.206705 -0.23771,0.203261 -0.23771,0.582222 0,0.337619 0.2136,0.54777 0.21359,0.206705 0.56155,0.206705 z m -0.64768,1.471056 q -0.37896,0.165365 -0.37896,0.478868 0,0.265273 0.31006,0.409967 0.3135,0.148139 0.79582,0.148139 0.44786,0 0.81993,-0.127469 0.37207,-0.124023 0.37207,-0.423746 0,-0.16192 -0.11024,-0.265273 -0.11025,-0.103353 -0.30317,-0.130913 -0.18948,-0.02756 -0.66491,-0.04134 -0.56844,-0.01378 -0.8406,-0.04823 z"
         style="fill:#862828;fill-opacity:1;stroke-width:0.26458332"
         id="path8214"
         inkscape:connector-curvature="0" />
    </g>
    <g
       aria-label="Zuweisungsoperator"
       style="font-style:normal;font-variant:normal;font-weight:normal;font-stretch:normal;font-size:7.05555534px;line-height:1.25;font-family:'Franklin Gothic Book';-inkscape-font-specification:'Franklin Gothic Book, ';letter-spacing:0px;word-spacing:0px;fill:#000000;fill-opacity:1;stroke:none;stroke-width:0.26458332"
       id="text4560">
      <path
         d="m 115.96565,93.187278 v 0.502984 h -3.31763 v -0.502984 l 2.55281,-3.689697 h -2.43568 v -0.478868 h 3.1247 v 0.39274 l -2.58382,3.775825 z"
         style="fill:#00828a;fill-opacity:1;stroke-width:0.26458332"
         id="path8157"
         inkscape:connector-curvature="0" />
      <path
         d="m 119.41419,93.690262 h -0.48576 v -0.664904 q -0.37207,0.757921 -1.10932,0.757921 -0.53399,0 -0.84061,-0.351399 -0.30316,-0.3514 -0.30316,-0.999078 v -2.222086 h 0.54088 v 2.222086 q 0,0.516764 0.21359,0.713135 0.21704,0.192925 0.47542,0.192925 0.26183,0 0.47198,-0.148139 0.2136,-0.148139 0.35485,-0.420302 0.14125,-0.275607 0.14125,-0.599446 v -1.960259 h 0.54088 z"
         style="fill:#00828a;fill-opacity:1;stroke-width:0.26458332"
         id="path8159"
         inkscape:connector-curvature="0" />
      <path
         d="m 124.50259,90.210716 -1.00252,3.479546 h -0.43753 l -0.77859,-2.583822 -0.71313,2.583822 h -0.44442 l -1.04387,-3.479546 h 0.54433 l 0.75448,2.594156 0.72347,-2.594156 h 0.39618 l 0.78204,2.604492 0.78203,-2.604492 z"
         style="fill:#00828a;fill-opacity:1;stroke-width:0.26458332"
         id="path8161"
         inkscape:connector-curvature="0" />
      <path
         d="m 127.38614,92.653288 0.50298,0.103353 q -0.1378,0.444417 -0.53743,0.73725 -0.39963,0.289388 -0.94051,0.289388 -0.71314,0 -1.15411,-0.499538 -0.44097,-0.502984 -0.44097,-1.316027 0,-0.830268 0.45819,-1.340142 0.4582,-0.513319 1.15067,-0.513319 0.68212,0 1.09554,0.471978 0.41685,0.471978 0.42719,1.412489 h -2.5287 q 0,0.788927 0.33073,1.064534 0.33073,0.275608 0.69935,0.275608 0.6649,0 0.93707,-0.685574 z m -0.031,-1.057644 q -0.007,-0.292833 -0.0965,-0.52021 -0.0896,-0.227376 -0.30317,-0.38585 -0.2136,-0.16192 -0.51332,-0.16192 -0.40308,0 -0.68557,0.289388 -0.27906,0.289388 -0.31351,0.778592 z"
         style="fill:#00828a;fill-opacity:1;stroke-width:0.26458332"
         id="path8163"
         inkscape:connector-curvature="0" />
      <path
         d="m 129.33262,88.987707 v 0.599446 h -0.58223 v -0.599446 z m -0.0172,1.223009 v 3.479546 h -0.54088 v -3.479546 z"
         style="fill:#00828a;fill-opacity:1;stroke-width:0.26458332"
         id="path8165"
         inkscape:connector-curvature="0" />
      <path
         d="m 129.93206,92.787647 0.51677,-0.106798 q 0.17225,0.658013 1.08865,0.658013 0.33762,0 0.57188,-0.151584 0.23427,-0.151584 0.23427,-0.427192 0,-0.409966 -0.596,-0.520209 l -0.73381,-0.137804 q -0.43064,-0.08268 -0.68557,-0.323839 -0.25494,-0.241157 -0.25494,-0.637343 0,-0.437527 0.34796,-0.73036 0.34795,-0.296278 0.93706,-0.296278 1.13344,0 1.39871,0.885389 l -0.49609,0.106798 q -0.2136,-0.544325 -0.8785,-0.544325 -0.33073,0 -0.54433,0.137804 -0.21015,0.134359 -0.21015,0.378961 0,0.38585 0.54088,0.485758 l 0.67868,0.120578 q 1.06454,0.192926 1.06454,1.030084 0,0.478868 -0.39619,0.775146 -0.39618,0.292833 -1.0542,0.292833 -1.23679,0 -1.52962,-0.995632 z"
         style="fill:#00828a;fill-opacity:1;stroke-width:0.26458332"
         id="path8167"
         inkscape:connector-curvature="0" />
      <path
         d="m 136.41918,93.690262 h -0.48576 v -0.664904 q -0.37207,0.757921 -1.10932,0.757921 -0.53399,0 -0.84061,-0.351399 -0.30316,-0.3514 -0.30316,-0.999078 v -2.222086 h 0.54088 v 2.222086 q 0,0.516764 0.21359,0.713135 0.21704,0.192925 0.47543,0.192925 0.26182,0 0.47197,-0.148139 0.2136,-0.148139 0.35485,-0.420302 0.14125,-0.275607 0.14125,-0.599446 v -1.960259 h 0.54088 z"
         style="fill:#00828a;fill-opacity:1;stroke-width:0.26458332"
         id="path8169"
         inkscape:connector-curvature="0" />
      <path
         d="m 140.23979,93.690262 h -0.50643 v -2.235867 q 0,-0.482313 -0.21015,-0.678684 -0.21015,-0.19637 -0.50988,-0.19637 -0.41341,0 -0.69591,0.330729 -0.27905,0.330729 -0.27905,0.871609 v 1.908583 h -0.54088 v -3.479546 h 0.50299 v 0.640787 q 0.42374,-0.73725 1.09898,-0.73725 0.3893,0 0.66146,0.20326 0.27561,0.199816 0.37551,0.451308 0.10336,0.251492 0.10336,0.909505 z"
         style="fill:#00828a;fill-opacity:1;stroke-width:0.26458332"
         id="path8171"
         inkscape:connector-curvature="0" />
      <path
         d="m 144.17064,89.66639 v 0.430637 q -0.37207,0 -0.49954,0.08613 -0.12402,0.08613 -0.16536,0.310058 0.33417,0.385851 0.33417,0.840604 0,0.475423 -0.36518,0.816487 -0.36173,0.341065 -0.97496,0.341065 -0.1378,0 -0.23771,-0.02067 -0.18948,-0.0379 -0.23771,-0.0379 -0.093,0 -0.22393,0.09302 -0.13092,0.08957 -0.13092,0.234266 0,0.206706 0.18948,0.268718 0.18948,0.06201 0.89228,0.07924 0.596,0.01722 0.8785,0.08268 0.28594,0.06201 0.48231,0.282498 0.19638,0.217041 0.19638,0.53399 0,0.995632 -1.75011,0.995632 -0.83027,0 -1.21268,-0.251492 -0.37896,-0.248047 -0.37896,-0.664903 0,-0.506429 0.53055,-0.695909 -0.34107,-0.223932 -0.34107,-0.561551 0,-0.403076 0.48232,-0.616672 -0.45131,-0.36518 -0.45131,-0.919841 0,-0.516764 0.38585,-0.847493 0.38585,-0.330729 0.94051,-0.330729 0.39274,0 0.71314,0.148139 0.0517,-0.341065 0.23771,-0.471978 0.18948,-0.130914 0.57188,-0.130914 0.0379,0 0.13436,0.0069 z m -1.65364,2.411567 q 0.34451,0 0.56155,-0.210151 0.21704,-0.213596 0.21704,-0.551215 0,-0.344509 -0.22738,-0.56155 -0.22393,-0.220487 -0.54432,-0.220487 -0.30662,0 -0.54433,0.206706 -0.23771,0.203261 -0.23771,0.582221 0,0.33762 0.21359,0.54777 0.2136,0.206706 0.56156,0.206706 z m -0.64768,1.471056 q -0.37896,0.165365 -0.37896,0.478868 0,0.265273 0.31006,0.409967 0.3135,0.148139 0.79581,0.148139 0.44787,0 0.81994,-0.127469 0.37207,-0.124023 0.37207,-0.423747 0,-0.161919 -0.11025,-0.265272 -0.11024,-0.103353 -0.30317,-0.130914 -0.18948,-0.02756 -0.6649,-0.04134 -0.56844,-0.01378 -0.8406,-0.04823 z"
         style="fill:#00828a;fill-opacity:1;stroke-width:0.26458332"
         id="path8173"
         inkscape:connector-curvature="0" />
      <path
         d="m 144.33256,92.787647 0.51677,-0.106798 q 0.17225,0.658013 1.08865,0.658013 0.33761,0 0.57188,-0.151584 0.23427,-0.151584 0.23427,-0.427192 0,-0.409966 -0.596,-0.520209 l -0.73381,-0.137804 q -0.43064,-0.08268 -0.68557,-0.323839 -0.25494,-0.241157 -0.25494,-0.637343 0,-0.437527 0.34795,-0.73036 0.34796,-0.296278 0.93707,-0.296278 1.13344,0 1.39871,0.885389 l -0.49609,0.106798 q -0.2136,-0.544325 -0.8785,-0.544325 -0.33073,0 -0.54433,0.137804 -0.21015,0.134359 -0.21015,0.378961 0,0.38585 0.54088,0.485758 l 0.67868,0.120578 q 1.06454,0.192926 1.06454,1.030084 0,0.478868 -0.39619,0.775146 -0.39618,0.292833 -1.0542,0.292833 -1.23679,0 -1.52962,-0.995632 z"
         style="fill:#00828a;fill-opacity:1;stroke-width:0.26458332"
         id="path8175"
         inkscape:connector-curvature="0" />
      <path
         d="m 149.32795,93.783279 q -0.71658,0 -1.11966,-0.530544 -0.39963,-0.530545 -0.39963,-1.316027 0,-0.830268 0.45131,-1.326361 0.45131,-0.496094 1.1231,-0.496094 0.72002,0 1.13344,0.523654 0.41685,0.52021 0.41685,1.302246 0,0.813043 -0.44786,1.329807 -0.44786,0.513319 -1.15755,0.513319 z m 0.0413,-0.444417 q 0.41341,0 0.69246,-0.341064 0.27906,-0.341065 0.27906,-1.06109 0,-0.72347 -0.29284,-1.047309 -0.29283,-0.327284 -0.68557,-0.327284 -0.40308,0 -0.68213,0.330729 -0.27905,0.327284 -0.27905,1.040419 0,0.754476 0.27905,1.08176 0.27905,0.323839 0.68902,0.323839 z"
         style="fill:#00828a;fill-opacity:1;stroke-width:0.26458332"
         id="path8177"
         inkscape:connector-curvature="0" />
      <path
         d="m 152.28728,94.865039 h -0.54088 v -4.654323 h 0.48576 v 0.675238 q 0.36863,-0.771701 1.09899,-0.771701 0.61667,0 0.99563,0.516764 0.37896,0.513319 0.37896,1.302246 0,0.850939 -0.38929,1.350478 -0.3893,0.499538 -0.99908,0.499538 -0.65457,0 -1.03009,-0.623562 z m 0,-3.417534 v 0.978407 q 0.0517,0.396186 0.33418,0.654568 0.2825,0.258382 0.58911,0.258382 0.35484,0 0.62701,-0.310058 0.2756,-0.310059 0.2756,-1.071425 0,-0.658013 -0.24804,-1.012858 -0.24805,-0.35829 -0.65802,-0.35829 -0.32383,0 -0.58222,0.251492 -0.25493,0.251492 -0.33762,0.609782 z"
         style="fill:#00828a;fill-opacity:1;stroke-width:0.26458332"
         id="path8179"
         inkscape:connector-curvature="0" />
      <path
         d="m 157.82011,92.653288 0.50298,0.103353 q -0.1378,0.444417 -0.53743,0.73725 -0.39963,0.289388 -0.94051,0.289388 -0.71314,0 -1.15411,-0.499538 -0.44097,-0.502984 -0.44097,-1.316027 0,-0.830268 0.4582,-1.340142 0.45819,-0.513319 1.15066,-0.513319 0.68213,0 1.09554,0.471978 0.41685,0.471978 0.42719,1.412489 h -2.5287 q 0,0.788927 0.33073,1.064534 0.33073,0.275608 0.69935,0.275608 0.66491,0 0.93707,-0.685574 z m -0.031,-1.057644 q -0.007,-0.292833 -0.0965,-0.52021 -0.0896,-0.227376 -0.30317,-0.38585 -0.21359,-0.16192 -0.51332,-0.16192 -0.40307,0 -0.68557,0.289388 -0.27905,0.289388 -0.31351,0.778592 z"
         style="fill:#00828a;fill-opacity:1;stroke-width:0.26458332"
         id="path8181"
         inkscape:connector-curvature="0" />
      <path
         d="m 159.74247,93.690262 h -0.54088 v -3.479546 h 0.47543 v 0.813042 q 0.25149,-0.575331 0.50298,-0.744141 0.25494,-0.172254 0.52021,-0.172254 0.0827,0 0.2136,0.01378 v 0.516764 h -0.11025 q -0.44786,0 -0.74414,0.334175 -0.29628,0.334174 -0.31695,0.878499 z"
         style="fill:#00828a;fill-opacity:1;stroke-width:0.26458332"
         id="path8183"
         inkscape:connector-curvature="0" />
      <path
         d="m 164.25555,93.690262 h -0.53744 q -0.031,-0.165365 -0.062,-0.627008 -0.35829,0.720025 -1.21956,0.720025 -0.58567,0 -0.89917,-0.310058 -0.31351,-0.310059 -0.31351,-0.744141 0,-0.527099 0.44787,-0.864719 0.44786,-0.341064 1.52273,-0.341064 0.14469,0 0.46164,0.01378 0,-0.413411 -0.0655,-0.596001 -0.062,-0.186035 -0.26871,-0.296278 -0.20671,-0.110244 -0.54433,-0.110244 -0.82338,0 -0.95773,0.627008 l -0.49954,-0.08613 q 0.18259,-0.961181 1.53651,-0.961181 0.72002,0 1.01975,0.320394 0.30317,0.316948 0.30317,1.10243 v 1.477946 q 0,0.368625 0.0758,0.675239 z m -0.59945,-1.739773 q -0.33073,-0.02067 -0.50298,-0.02067 -0.64079,0 -0.99564,0.210151 -0.35484,0.210151 -0.35484,0.613227 0,0.254937 0.18948,0.434082 0.19293,0.179145 0.55466,0.179145 0.4892,0 0.80271,-0.354845 0.31695,-0.354845 0.31695,-0.833713 0,-0.09646 -0.0103,-0.227376 z"
         style="fill:#00828a;fill-opacity:1;stroke-width:0.26458332"
         id="path8185"
         inkscape:connector-curvature="0" />
      <path
         d="m 166.84281,93.318192 v 0.427191 q -0.28594,0.0379 -0.49609,0.0379 -1.00941,0 -1.00941,-1.054199 v -2.094618 h -0.61668 V 90.21072 h 0.61668 l 0.0241,-0.875055 0.50299,-0.04823 v 0.923286 h 0.77859 v 0.423746 h -0.77859 v 2.184191 q 0,0.537435 0.5581,0.537435 0.18604,0 0.4203,-0.0379 z"
         style="fill:#00828a;fill-opacity:1;stroke-width:0.26458332"
         id="path8187"
         inkscape:connector-curvature="0" />
      <path
         d="m 168.57914,93.783279 q -0.71658,0 -1.11965,-0.530544 -0.39963,-0.530545 -0.39963,-1.316027 0,-0.830268 0.4513,-1.326361 0.45131,-0.496094 1.1231,-0.496094 0.72003,0 1.13344,0.523654 0.41686,0.52021 0.41686,1.302246 0,0.813043 -0.44787,1.329807 -0.44786,0.513319 -1.15755,0.513319 z m 0.0413,-0.444417 q 0.41341,0 0.69247,-0.341064 0.27905,-0.341065 0.27905,-1.06109 0,-0.72347 -0.29283,-1.047309 -0.29284,-0.327284 -0.68558,-0.327284 -0.40307,0 -0.68213,0.330729 -0.27905,0.327284 -0.27905,1.040419 0,0.754476 0.27905,1.08176 0.27906,0.323839 0.68902,0.323839 z"
         style="fill:#00828a;fill-opacity:1;stroke-width:0.26458332"
         id="path8189"
         inkscape:connector-curvature="0" />
      <path
         d="m 171.53848,93.690262 h -0.54088 v -3.479546 h 0.47542 v 0.813042 q 0.25149,-0.575331 0.50299,-0.744141 0.25493,-0.172254 0.5202,-0.172254 0.0827,0 0.2136,0.01378 v 0.516764 h -0.11024 q -0.44786,0 -0.74414,0.334175 -0.29628,0.334174 -0.31695,0.878499 z"
         style="fill:#00828a;fill-opacity:1;stroke-width:0.26458332"
         id="path8191"
         inkscape:connector-curvature="0" />
    </g>
    <g
       aria-label="Abschluss des
Statements"
       style="font-style:normal;font-variant:normal;font-weight:normal;font-stretch:normal;font-size:7.05555534px;line-height:1.25;font-family:'Franklin Gothic Book';-inkscape-font-specification:'Franklin Gothic Book, ';letter-spacing:0px;word-spacing:0px;fill:#000000;fill-opacity:1;stroke:none;stroke-width:0.26458332"
       id="text4564"
       transform="translate(10.105576,-17.945594)">
      <path
         d="m 171.45738,130.29353 h -0.60289 l -0.47543,-1.37459 h -1.73977 l -0.4203,1.37459 h -0.49265 l 1.52618,-4.70255 h 0.67179 z m -1.20234,-1.81556 -0.72347,-2.25998 -0.73036,2.25998 z"
         style="fill:#547b17;fill-opacity:1;stroke-width:0.26458332"
         id="path8069"
         inkscape:connector-curvature="0" />
      <path
         d="m 172.22564,130.29353 h -0.26183 v -4.70255 h 0.54088 v 1.80178 q 0.37207,-0.67524 1.02664,-0.67524 0.59944,0 1.00252,0.47198 0.40652,0.47198 0.40652,1.37115 0,0.77515 -0.39963,1.30225 -0.39619,0.52365 -1.03353,0.52365 -0.70969,0 -1.08865,-0.66835 z m 0.27905,-1.36425 q 0.0379,0.53399 0.32728,0.77514 0.29283,0.24116 0.61667,0.24116 0.41342,0 0.66491,-0.35829 0.25493,-0.35829 0.25493,-0.98185 0,-0.6718 -0.2446,-1.0542 -0.2446,-0.38585 -0.67868,-0.38585 -0.34107,0 -0.61667,0.2756 -0.27217,0.27217 -0.32384,0.70625 z"
         style="fill:#547b17;fill-opacity:1;stroke-width:0.26458332"
         id="path8071"
         inkscape:connector-curvature="0" />
      <path
         d="m 175.28488,129.39092 0.51676,-0.1068 q 0.17226,0.65801 1.08865,0.65801 0.33762,0 0.57189,-0.15158 0.23427,-0.15158 0.23427,-0.42719 0,-0.40997 -0.596,-0.52021 l -0.73381,-0.13781 q -0.43064,-0.0827 -0.68557,-0.32383 -0.25494,-0.24116 -0.25494,-0.63735 0,-0.43752 0.34795,-0.73036 0.34796,-0.29628 0.93707,-0.29628 1.13344,0 1.39871,0.88539 l -0.4961,0.1068 q -0.21359,-0.54432 -0.87849,-0.54432 -0.33073,0 -0.54433,0.1378 -0.21015,0.13436 -0.21015,0.37896 0,0.38585 0.54088,0.48576 l 0.67868,0.12058 q 1.06454,0.19292 1.06454,1.03008 0,0.47887 -0.39619,0.77515 -0.39618,0.29283 -1.0542,0.29283 -1.23679,0 -1.52962,-0.99563 z"
         style="fill:#547b17;fill-opacity:1;stroke-width:0.26458332"
         id="path8073"
         inkscape:connector-curvature="0" />
      <path
         d="m 181.08987,129.07397 0.4892,0.0861 q -0.10335,0.57533 -0.4582,0.90261 -0.35484,0.32384 -0.88539,0.32384 -0.72002,0 -1.09898,-0.53054 -0.37552,-0.53055 -0.37552,-1.29536 0,-0.79237 0.39619,-1.31603 0.39963,-0.5271 1.0852,-0.5271 0.56844,0 0.90951,0.34107 0.34451,0.33762 0.42719,0.87505 l -0.4892,0.093 q -0.13781,-0.86127 -0.83372,-0.86127 -0.44786,0 -0.68902,0.3824 -0.24115,0.37896 -0.24115,0.9853 0,0.66835 0.23771,1.04042 0.24116,0.36862 0.67524,0.36862 0.67179,0 0.85094,-0.86816 z"
         style="fill:#547b17;fill-opacity:1;stroke-width:0.26458332"
         id="path8075"
         inkscape:connector-curvature="0" />
      <path
         d="m 185.05517,130.29353 h -0.54088 v -2.11184 q 0,-0.37207 -0.0482,-0.55811 -0.0448,-0.18603 -0.22049,-0.32039 -0.17225,-0.1378 -0.39963,-0.1378 -0.41686,0 -0.69935,0.34106 -0.27906,0.34107 -0.27906,0.91295 v 1.87413 h -0.54088 v -4.70255 h 0.54088 v 1.86379 q 0.36863,-0.73725 1.0542,-0.73725 0.30662,0 0.54433,0.12058 0.24116,0.12058 0.36862,0.31695 0.12747,0.19637 0.17226,0.3893 0.0482,0.18948 0.0482,0.63734 z"
         style="fill:#547b17;fill-opacity:1;stroke-width:0.26458332"
         id="path8077"
         inkscape:connector-curvature="0" />
      <path
         d="m 186.6847,130.29353 h -0.54088 v -4.70255 h 0.54088 z"
         style="fill:#547b17;fill-opacity:1;stroke-width:0.26458332"
         id="path8079"
         inkscape:connector-curvature="0" />
      <path
         d="M 190.50876,130.29353 H 190.023 v -0.6649 q -0.37207,0.75792 -1.10932,0.75792 -0.53399,0 -0.84061,-0.3514 -0.30317,-0.3514 -0.30317,-0.99908 v -2.22208 h 0.54088 v 2.22208 q 0,0.51677 0.2136,0.71314 0.21704,0.19292 0.47542,0.19292 0.26183,0 0.47198,-0.14814 0.2136,-0.14813 0.35485,-0.4203 0.14125,-0.2756 0.14125,-0.59944 v -1.96026 h 0.54088 z"
         style="fill:#547b17;fill-opacity:1;stroke-width:0.26458332"
         id="path8081"
         inkscape:connector-curvature="0" />
      <path
         d="m 191.11854,129.39092 0.51676,-0.1068 q 0.17226,0.65801 1.08865,0.65801 0.33762,0 0.57189,-0.15158 0.23426,-0.15158 0.23426,-0.42719 0,-0.40997 -0.596,-0.52021 l -0.7338,-0.13781 q -0.43064,-0.0827 -0.68558,-0.32383 -0.25493,-0.24116 -0.25493,-0.63735 0,-0.43752 0.34795,-0.73036 0.34796,-0.29628 0.93707,-0.29628 1.13343,0 1.39871,0.88539 l -0.4961,0.1068 q -0.21359,-0.54432 -0.8785,-0.54432 -0.33073,0 -0.54432,0.1378 -0.21015,0.13436 -0.21015,0.37896 0,0.38585 0.54088,0.48576 l 0.67868,0.12058 q 1.06453,0.19292 1.06453,1.03008 0,0.47887 -0.39618,0.77515 -0.39619,0.29283 -1.0542,0.29283 -1.23679,0 -1.52962,-0.99563 z"
         style="fill:#547b17;fill-opacity:1;stroke-width:0.26458332"
         id="path8083"
         inkscape:connector-curvature="0" />
      <path
         d="m 194.39827,129.39092 0.51676,-0.1068 q 0.17226,0.65801 1.08865,0.65801 0.33762,0 0.57189,-0.15158 0.23427,-0.15158 0.23427,-0.42719 0,-0.40997 -0.59601,-0.52021 l -0.7338,-0.13781 q -0.43064,-0.0827 -0.68558,-0.32383 -0.25493,-0.24116 -0.25493,-0.63735 0,-0.43752 0.34795,-0.73036 0.34796,-0.29628 0.93707,-0.29628 1.13343,0 1.39871,0.88539 l -0.4961,0.1068 q -0.21359,-0.54432 -0.8785,-0.54432 -0.33072,0 -0.54432,0.1378 -0.21015,0.13436 -0.21015,0.37896 0,0.38585 0.54088,0.48576 l 0.67868,0.12058 q 1.06454,0.19292 1.06454,1.03008 0,0.47887 -0.39619,0.77515 -0.39619,0.29283 -1.0542,0.29283 -1.23679,0 -1.52962,-0.99563 z"
         style="fill:#547b17;fill-opacity:1;stroke-width:0.26458332"
         id="path8085"
         inkscape:connector-curvature="0" />
      <path
         d="m 202.6286,125.59098 v 4.70255 h -0.49265 v -0.596 q -0.36518,0.68902 -1.09898,0.68902 -0.60978,0 -1.00253,-0.50987 -0.39274,-0.51332 -0.39274,-1.29536 0,-0.79926 0.3893,-1.32981 0.3893,-0.53399 1.03353,-0.53399 0.62701,0 1.02319,0.57189 v -1.69843 z m -0.54088,2.56659 q 0,-0.45819 -0.27905,-0.7338 -0.27905,-0.27561 -0.65112,-0.27561 -0.40308,0 -0.66491,0.35829 -0.25838,0.35829 -0.25838,1.00597 0,0.69935 0.23771,1.06453 0.24116,0.36518 0.65801,0.36518 0.37897,0 0.66835,-0.31695 0.28939,-0.31694 0.28939,-0.74414 z"
         style="fill:#547b17;fill-opacity:1;stroke-width:0.26458332"
         id="path8087"
         inkscape:connector-curvature="0" />
      <path
         d="m 206.01169,129.25656 0.50298,0.10335 q -0.1378,0.44442 -0.53743,0.73725 -0.39964,0.28939 -0.94052,0.28939 -0.71313,0 -1.1541,-0.49954 -0.44097,-0.50298 -0.44097,-1.31602 0,-0.83027 0.45819,-1.34015 0.4582,-0.51332 1.15066,-0.51332 0.68213,0 1.09555,0.47198 0.41685,0.47198 0.42719,1.41249 h -2.5287 q 0,0.78893 0.33073,1.06454 0.33073,0.2756 0.69935,0.2756 0.6649,0 0.93707,-0.68557 z m -0.031,-1.05764 q -0.007,-0.29284 -0.0965,-0.52021 -0.0896,-0.22738 -0.30317,-0.38585 -0.2136,-0.16192 -0.51332,-0.16192 -0.40308,0 -0.68557,0.28938 -0.27906,0.28939 -0.31351,0.7786 z"
         style="fill:#547b17;fill-opacity:1;stroke-width:0.26458332"
         id="path8089"
         inkscape:connector-curvature="0" />
      <path
         d="m 206.92463,129.39092 0.51677,-0.1068 q 0.17225,0.65801 1.08865,0.65801 0.33762,0 0.57188,-0.15158 0.23427,-0.15158 0.23427,-0.42719 0,-0.40997 -0.596,-0.52021 l -0.73381,-0.13781 q -0.43063,-0.0827 -0.68557,-0.32383 -0.25494,-0.24116 -0.25494,-0.63735 0,-0.43752 0.34796,-0.73036 0.34795,-0.29628 0.93706,-0.29628 1.13344,0 1.39871,0.88539 l -0.49609,0.1068 q -0.2136,-0.54432 -0.8785,-0.54432 -0.33073,0 -0.54433,0.1378 -0.21015,0.13436 -0.21015,0.37896 0,0.38585 0.54088,0.48576 l 0.67869,0.12058 q 1.06453,0.19292 1.06453,1.03008 0,0.47887 -0.39618,0.77515 -0.39619,0.29283 -1.0542,0.29283 -1.23679,0 -1.52963,-0.99563 z"
         style="fill:#547b17;fill-opacity:1;stroke-width:0.26458332"
         id="path8091"
         inkscape:connector-curvature="0" />
      <path
         d="m 167.77457,137.86241 0.53055,-0.12058 q 0.32039,0.96118 1.38837,0.96118 0.55811,0 0.8406,-0.23427 0.2825,-0.23771 0.2825,-0.63389 0,-0.29973 -0.21704,-0.48232 -0.2136,-0.18259 -0.49609,-0.25149 l -0.94051,-0.23426 q -0.36518,-0.093 -0.59945,-0.22394 -0.23082,-0.13435 -0.39274,-0.40996 -0.16192,-0.27561 -0.16192,-0.63045 0,-0.58912 0.44442,-0.93707 0.44441,-0.3514 1.14032,-0.3514 1.28158,0 1.68465,1.161 l -0.53399,0.15847 q -0.093,-0.41341 -0.43752,-0.62356 -0.34451,-0.2136 -0.73381,-0.2136 -0.38585,0 -0.68902,0.20326 -0.29972,0.20326 -0.29972,0.57533 0,0.52021 0.76481,0.7028 l 0.8785,0.21015 q 1.20578,0.28939 1.20578,1.29881 0,0.60978 -0.45475,1.0163 -0.45131,0.40308 -1.27468,0.40308 -1.46073,0 -1.92926,-1.34359 z"
         style="fill:#547b17;fill-opacity:1;stroke-width:0.26458332"
         id="path8093"
         inkscape:connector-curvature="0" />
      <path
         d="m 173.84483,138.74091 v 0.42719 q -0.28594,0.0379 -0.49609,0.0379 -1.00942,0 -1.00942,-1.0542 v -2.09462 h -0.61667 v -0.42375 h 0.61667 l 0.0241,-0.87505 0.50298,-0.0482 v 0.92328 h 0.77859 v 0.42375 h -0.77859 v 2.18419 q 0,0.53743 0.55811,0.53743 0.18603,0 0.4203,-0.0379 z"
         style="fill:#547b17;fill-opacity:1;stroke-width:0.26458332"
         id="path8095"
         inkscape:connector-curvature="0" />
      <path
         d="m 177.16935,139.11298 h -0.53744 q -0.031,-0.16537 -0.062,-0.62701 -0.35829,0.72003 -1.21956,0.72003 -0.58567,0 -0.89917,-0.31006 -0.31351,-0.31006 -0.31351,-0.74414 0,-0.5271 0.44787,-0.86472 0.44786,-0.34107 1.52273,-0.34107 0.14469,0 0.46164,0.0138 0,-0.41341 -0.0655,-0.596 -0.062,-0.18603 -0.26871,-0.29628 -0.20671,-0.11024 -0.54433,-0.11024 -0.82338,0 -0.95774,0.62701 l -0.49953,-0.0861 q 0.18259,-0.96118 1.53651,-0.96118 0.72002,0 1.01975,0.32039 0.30316,0.31695 0.30316,1.10243 v 1.47795 q 0,0.36862 0.0758,0.67524 z m -0.59945,-1.73978 q -0.33073,-0.0207 -0.50298,-0.0207 -0.64079,0 -0.99564,0.21015 -0.35484,0.21016 -0.35484,0.61323 0,0.25494 0.18948,0.43408 0.19292,0.17915 0.55466,0.17915 0.4892,0 0.80271,-0.35485 0.31695,-0.35484 0.31695,-0.83371 0,-0.0965 -0.0103,-0.22738 z"
         style="fill:#547b17;fill-opacity:1;stroke-width:0.26458332"
         id="path8097"
         inkscape:connector-curvature="0" />
      <path
         d="m 179.75661,138.74091 v 0.42719 q -0.28594,0.0379 -0.49609,0.0379 -1.00941,0 -1.00941,-1.0542 v -2.09462 h -0.61667 v -0.42375 h 0.61667 l 0.0241,-0.87505 0.50299,-0.0482 v 0.92328 h 0.77859 v 0.42375 h -0.77859 v 2.18419 q 0,0.53743 0.5581,0.53743 0.18604,0 0.4203,-0.0379 z"
         style="fill:#547b17;fill-opacity:1;stroke-width:0.26458332"
         id="path8099"
         inkscape:connector-curvature="0" />
      <path
         d="m 182.53681,138.076 0.50298,0.10336 q -0.1378,0.44441 -0.53744,0.73725 -0.39963,0.28939 -0.94051,0.28939 -0.71313,0 -1.1541,-0.49954 -0.44098,-0.50299 -0.44098,-1.31603 0,-0.83027 0.4582,-1.34014 0.4582,-0.51332 1.15066,-0.51332 0.68213,0 1.09554,0.47198 0.41686,0.47197 0.4272,1.41249 h -2.5287 q 0,0.78892 0.33072,1.06453 0.33073,0.27561 0.69936,0.27561 0.6649,0 0.93707,-0.68558 z m -0.031,-1.05764 q -0.007,-0.29283 -0.0965,-0.52021 -0.0896,-0.22738 -0.30317,-0.38585 -0.2136,-0.16192 -0.51332,-0.16192 -0.40308,0 -0.68557,0.28939 -0.27906,0.28939 -0.31351,0.77859 z"
         style="fill:#547b17;fill-opacity:1;stroke-width:0.26458332"
         id="path8101"
         inkscape:connector-curvature="0" />
      <path
         d="m 188.58639,139.11298 h -0.5271 v -2.16352 q 0,-0.33418 -0.0482,-0.49954 -0.0448,-0.16881 -0.22393,-0.30661 -0.17914,-0.14125 -0.40307,-0.14125 -0.31006,0 -0.59945,0.28594 -0.28594,0.2825 -0.28594,0.86472 v 1.96026 h -0.52366 v -2.29099 q 0,-0.4582 -0.22049,-0.64768 -0.21704,-0.18948 -0.45819,-0.18948 -0.34451,0 -0.59945,0.29628 -0.25494,0.29628 -0.25494,0.75103 v 2.08084 h -0.51676 v -3.47955 h 0.46509 v 0.66835 q 0.38929,-0.76481 1.07142,-0.76481 0.37552,0 0.63734,0.2446 0.26183,0.2446 0.33762,0.58911 0.35829,-0.83371 1.09899,-0.83371 0.35484,0 0.62012,0.20326 0.26871,0.20326 0.34795,0.46853 0.0827,0.26183 0.0827,0.7407 z"
         style="fill:#547b17;fill-opacity:1;stroke-width:0.26458332"
         id="path8103"
         inkscape:connector-curvature="0" />
      <path
         d="m 191.96948,138.076 0.50298,0.10336 q -0.1378,0.44441 -0.53743,0.73725 -0.39964,0.28939 -0.94052,0.28939 -0.71313,0 -1.1541,-0.49954 -0.44097,-0.50299 -0.44097,-1.31603 0,-0.83027 0.45819,-1.34014 0.4582,-0.51332 1.15067,-0.51332 0.68212,0 1.09554,0.47198 0.41685,0.47197 0.42719,1.41249 h -2.5287 q 0,0.78892 0.33073,1.06453 0.33073,0.27561 0.69935,0.27561 0.6649,0 0.93707,-0.68558 z m -0.031,-1.05764 q -0.007,-0.29283 -0.0965,-0.52021 -0.0896,-0.22738 -0.30317,-0.38585 -0.2136,-0.16192 -0.51332,-0.16192 -0.40308,0 -0.68557,0.28939 -0.27906,0.28939 -0.31351,0.77859 z"
         style="fill:#547b17;fill-opacity:1;stroke-width:0.26458332"
         id="path8105"
         inkscape:connector-curvature="0" />
      <path
         d="m 196.09326,139.11298 h -0.50643 v -2.23587 q 0,-0.48231 -0.21015,-0.67868 -0.21016,-0.19637 -0.50988,-0.19637 -0.41341,0 -0.69591,0.33073 -0.27905,0.33072 -0.27905,0.8716 v 1.90859 h -0.54088 v -3.47955 h 0.50298 v 0.64079 q 0.42375,-0.73725 1.09899,-0.73725 0.38929,0 0.66146,0.20326 0.2756,0.19981 0.37551,0.45131 0.10336,0.25149 0.10336,0.9095 z"
         style="fill:#547b17;fill-opacity:1;stroke-width:0.26458332"
         id="path8107"
         inkscape:connector-curvature="0" />
      <path
         d="m 198.75976,138.74091 v 0.42719 q -0.28594,0.0379 -0.49609,0.0379 -1.00942,0 -1.00942,-1.0542 v -2.09462 h -0.61667 v -0.42375 h 0.61667 l 0.0241,-0.87505 0.50298,-0.0482 v 0.92328 h 0.77859 v 0.42375 h -0.77859 v 2.18419 q 0,0.53743 0.55811,0.53743 0.18603,0 0.4203,-0.0379 z"
         style="fill:#547b17;fill-opacity:1;stroke-width:0.26458332"
         id="path8109"
         inkscape:connector-curvature="0" />
      <path
         d="m 198.89067,138.21036 0.51677,-0.1068 q 0.17225,0.65802 1.08865,0.65802 0.33762,0 0.57188,-0.15159 0.23427,-0.15158 0.23427,-0.42719 0,-0.40996 -0.596,-0.52021 l -0.73381,-0.1378 q -0.43063,-0.0827 -0.68557,-0.32384 -0.25494,-0.24116 -0.25494,-0.63734 0,-0.43753 0.34796,-0.73036 0.34795,-0.29628 0.93706,-0.29628 1.13344,0 1.39871,0.88539 l -0.49609,0.1068 q -0.2136,-0.54433 -0.8785,-0.54433 -0.33073,0 -0.54433,0.1378 -0.21015,0.13436 -0.21015,0.37897 0,0.38585 0.54088,0.48575 l 0.67869,0.12058 q 1.06453,0.19293 1.06453,1.03009 0,0.47886 -0.39619,0.77514 -0.39618,0.29284 -1.0542,0.29284 -1.23678,0 -1.52962,-0.99564 z"
         style="fill:#547b17;fill-opacity:1;stroke-width:0.26458332"
         id="path8111"
         inkscape:connector-curvature="0" />
    </g>
    <g
       aria-label="Wert"
       style="font-style:normal;font-variant:normal;font-weight:normal;font-stretch:normal;font-size:7.05555534px;line-height:1.25;font-family:'Franklin Gothic Book';-inkscape-font-specification:'Franklin Gothic Book, ';letter-spacing:0px;word-spacing:0px;fill:#000000;fill-opacity:1;stroke:none;stroke-width:0.26458332"
       id="text4570">
      <path
         d="m 151.53054,134.3409 -1.13343,4.70256 H 149.808 l -1.02664,-3.64836 -0.95429,3.64836 h -0.6029 l -1.192,-4.70256 h 0.60978 l 0.94051,3.81028 0.99908,-3.81028 h 0.47542 l 1.07832,3.81028 0.8785,-3.81028 z"
         style="fill:#cc6e00;fill-opacity:1;stroke-width:0.26458332"
         id="path8060"
         inkscape:connector-curvature="0" />
      <path
         d="m 154.34519,138.00648 0.50298,0.10336 q -0.1378,0.44441 -0.53744,0.73725 -0.39963,0.28938 -0.94051,0.28938 -0.71313,0 -1.1541,-0.49953 -0.44098,-0.50299 -0.44098,-1.31603 0,-0.83027 0.4582,-1.34014 0.4582,-0.51332 1.15066,-0.51332 0.68213,0 1.09554,0.47198 0.41686,0.47197 0.4272,1.41249 h -2.5287 q 0,0.78892 0.33073,1.06453 0.33072,0.27561 0.69935,0.27561 0.6649,0 0.93707,-0.68558 z m -0.031,-1.05764 q -0.007,-0.29283 -0.0965,-0.52021 -0.0896,-0.22738 -0.30317,-0.38585 -0.2136,-0.16192 -0.51332,-0.16192 -0.40308,0 -0.68557,0.28939 -0.27906,0.28939 -0.31351,0.77859 z"
         style="fill:#cc6e00;fill-opacity:1;stroke-width:0.26458332"
         id="path8062"
         inkscape:connector-curvature="0" />
      <path
         d="m 156.26755,139.04346 h -0.54088 v -3.47955 h 0.47542 v 0.81304 q 0.25149,-0.57533 0.50299,-0.74414 0.25493,-0.17225 0.52021,-0.17225 0.0827,0 0.21359,0.0138 v 0.51676 h -0.11024 q -0.44786,0 -0.74414,0.33418 -0.29628,0.33417 -0.31695,0.8785 z"
         style="fill:#cc6e00;fill-opacity:1;stroke-width:0.26458332"
         id="path8064"
         inkscape:connector-curvature="0" />
      <path
         d="m 159.87456,138.67139 v 0.42719 q -0.28594,0.0379 -0.49609,0.0379 -1.00941,0 -1.00941,-1.05419 v -2.09462 h -0.61668 v -0.42375 h 0.61668 l 0.0241,-0.87505 0.50299,-0.0482 v 0.92328 h 0.77859 v 0.42375 h -0.77859 v 2.18419 q 0,0.53743 0.5581,0.53743 0.18604,0 0.4203,-0.0379 z"
         style="fill:#cc6e00;fill-opacity:1;stroke-width:0.26458332"
         id="path8066"
         inkscape:connector-curvature="0" />
    </g>
    <path
       style="fill:#195faf;fill-opacity:1;stroke:#195faf;stroke-width:0.66500002;stroke-linecap:square;stroke-linejoin:miter;stroke-miterlimit:4;stroke-dasharray:none;stroke-opacity:1;marker-end:url(#Arrow2Mend)"
       d="m 44.837423,108.63892 2e-6,-9.685639"
       id="path4608"
       inkscape:connector-curvature="0" />
    <path
       style="fill:#992d2d;fill-opacity:1;stroke:#992d2d;stroke-width:0.66500002;stroke-linecap:square;stroke-linejoin:miter;stroke-miterlimit:4;stroke-dasharray:none;stroke-opacity:1;marker-end:url(#Arrow2Mend-9)"
       d="m 83.581048,108.63892 2e-6,-9.685639"
       id="path4608-3"
       inkscape:connector-curvature="0" />
    <path
       style="fill:#00929a;fill-opacity:1;stroke:#00929a;stroke-width:0.66500002;stroke-linecap:square;stroke-linejoin:miter;stroke-miterlimit:4;stroke-dasharray:none;stroke-opacity:1;marker-end:url(#Arrow2Mend-8)"
       d="M 141.95938,108.63892 V 98.953281"
       id="path4608-34"
       inkscape:connector-curvature="0" />
    <path
       style="fill:#d67400;fill-opacity:1;stroke:#d67400;stroke-width:0.67956436;stroke-linecap:square;stroke-linejoin:miter;stroke-miterlimit:4;stroke-dasharray:none;stroke-opacity:1;marker-end:url(#Arrow2Mend-8-0)"
       d="m 153.18598,120.68863 v 10.11454"
       id="path4608-34-3"
       inkscape:connector-curvature="0" />
    <path
       style="fill:#608b1b;fill-opacity:1;stroke:#608b1b;stroke-width:0.66500002;stroke-linecap:butt;stroke-linejoin:miter;stroke-miterlimit:4;stroke-dasharray:none;stroke-opacity:1;marker-end:url(#marker7662)"
       d="m 162.70687,114.88732 10.34508,0.0617"
       id="path7364"
       inkscape:connector-curvature="0" />
  </g>
  <g
     inkscape:groupmode="layer"
     id="layer3"
     inkscape:label="meine Variable"
     transform="translate(-10.16309,-79.252798)" />
</svg>
